<?xml version="1.0" encoding="utf-8"?>
<!-- Generator: Adobe Illustrator 25.4.1, SVG Export Plug-In . SVG Version: 6.00 Build 0)  -->
<svg version="1.1" xmlns="http://www.w3.org/2000/svg" xmlns:xlink="http://www.w3.org/1999/xlink" x="0px" y="0px"
	 viewBox="0 0 104.12 93.54" style="enable-background:new 0 0 104.12 93.54;" xml:space="preserve">
<style type="text/css">
	.st0{fill:#C6342C;}
	.st1{fill:#6B6B6A;}
	.st2{fill:#6C6B6B;}
	.st3{fill:#6C6C6B;}
	.st4{fill:#6D6D6C;}
	.st5{fill:#6D6D6D;}
	.st6{fill:#6E6E6D;}
	.st7{fill:#6E6E6E;}
	.st8{fill:#6F6F6E;}
	.st9{fill:#706F6F;}
	.st10{fill:#70706F;}
	.st11{fill:#717170;}
	.st12{fill:#717171;}
	.st13{fill:#727271;}
	.st14{fill:#737272;}
	.st15{fill:#737372;}
	.st16{fill:#747473;}
	.st17{fill:#747474;}
	.st18{fill:#757574;}
	.st19{fill:#757575;}
	.st20{fill:#767675;}
	.st21{fill:#777676;}
	.st22{fill:#777776;}
	.st23{fill:#787877;}
	.st24{fill:#787878;}
	.st25{fill:#797978;}
	.st26{fill:#7A7979;}
	.st27{fill:#7A7A79;}
	.st28{fill:#7B7B7A;}
	.st29{fill:#7B7B7B;}
	.st30{fill:#7C7C7B;}
	.st31{fill:#7C7C7C;}
	.st32{fill:#7D7D7C;}
	.st33{fill:#7E7D7D;}
	.st34{fill:#7E7E7E;}
	.st35{fill:#7F7F7E;}
	.st36{fill:#7F7F7F;}
	.st37{fill:#80807F;}
	.st38{fill:#818080;}
	.st39{fill:#818180;}
	.st40{fill:#828281;}
	.st41{fill:#828282;}
	.st42{fill:#838382;}
	.st43{fill:#838383;}
	.st44{fill:#848483;}
	.st45{fill:#858484;}
	.st46{fill:#858585;}
	.st47{fill:#868685;}
	.st48{fill:#868686;}
	.st49{fill:#878786;}
	.st50{fill:#888787;}
	.st51{fill:#888887;}
	.st52{fill:#898988;}
	.st53{fill:#898989;}
	.st54{fill:#8A8A89;}
	.st55{fill:#8A8A8A;}
	.st56{fill:#8B8B8A;}
	.st57{fill:#8C8B8B;}
	.st58{fill:#8C8C8C;}
	.st59{fill:#8D8D8C;}
	.st60{fill:#8D8D8D;}
	.st61{fill:#8E8E8D;}
	.st62{fill:#8F8E8E;}
	.st63{fill:#8F8F8F;}
	.st64{fill:#90908F;}
	.st65{fill:#909090;}
	.st66{fill:#919190;}
	.st67{fill:#919191;}
	.st68{fill:#929291;}
	.st69{fill:#939292;}
	.st70{fill:#939393;}
	.st71{fill:#949493;}
	.st72{fill:#949494;}
	.st73{fill:#959594;}
	.st74{fill:#959595;}
	.st75{fill:#969696;}
	.st76{fill:#979796;}
	.st77{fill:#979797;}
	.st78{fill:#989897;}
	.st79{fill:#989898;}
	.st80{fill:#999998;}
	.st81{fill:#9A9999;}
	.st82{fill:#9A9A9A;}
	.st83{fill:#9B9B9A;}
	.st84{fill:#9B9B9B;}
	.st85{fill:#9C9C9B;}
	.st86{fill:#9C9C9C;}
	.st87{fill:#9D9D9D;}
	.st88{fill:#9E9E9D;}
	.st89{fill:#9E9E9E;}
	.st90{fill:#9F9F9E;}
	.st91{fill:#9F9F9F;}
	.st92{fill:#A0A09F;}
	.st93{fill:#A1A0A0;}
	.st94{fill:#A1A1A1;}
	.st95{fill:#A2A2A1;}
	.st96{fill:#A2A2A2;}
	.st97{fill:#A3A3A2;}
	.st98{fill:#A3A3A3;}
	.st99{fill:#A4A4A4;}
	.st100{fill:#A5A5A4;}
	.st101{fill:#A5A5A5;}
	.st102{fill:#A6A6A5;}
	.st103{fill:#A6A6A6;}
	.st104{fill:#A7A7A7;}
	.st105{fill:#A8A7A7;}
	.st106{fill:#A8A8A8;}
	.st107{fill:#A9A9A8;}
	.st108{fill:#A9A9A9;}
	.st109{fill:#AAAAA9;}
	.st110{fill:#AAAAAA;}
	.st111{fill:#ABABAB;}
	.st112{fill:#ACACAB;}
	.st113{fill:#ACACAC;}
	.st114{fill:#ADADAC;}
	.st115{fill:#ADADAD;}
	.st116{fill:#AEAEAE;}
	.st117{fill:#AFAEAE;}
	.st118{fill:#AFAFAF;}
	.st119{fill:#B0B0AF;}
	.st120{fill:#B0B0B0;}
	.st121{fill:#B1B1B0;}
	.st122{fill:#B1B1B1;}
	.st123{fill:#B2B2B2;}
	.st124{fill:#B3B3B2;}
	.st125{fill:#B3B3B3;}
	.st126{fill:#B4B4B3;}
	.st127{fill:#B4B4B4;}
	.st128{fill:#B5B5B5;}
	.st129{fill:#B6B5B5;}
	.st130{fill:#B6B6B6;}
	.st131{fill:#B7B7B6;}
	.st132{fill:#B7B7B7;}
	.st133{fill:#B8B8B8;}
	.st134{fill:#B9B9B9;}
	.st135{fill:#BABAB9;}
	.st136{fill:#BABABA;}
	.st137{fill:#BBBBBA;}
	.st138{fill:#BBBBBB;}
	.st139{fill:#BCBCBC;}
	.st140{fill:#BDBCBC;}
	.st141{fill:#BDBDBD;}
	.st142{fill:#BEBEBD;}
	.st143{fill:#BEBEBE;}
	.st144{fill:#BFBFBF;}
	.st145{fill:#C0C0C0;}
	.st146{fill:#C1C1C0;}
	.st147{fill:#C1C1C1;}
	.st148{fill:#C2C2C1;}
	.st149{fill:#C2C2C2;}
	.st150{fill:#C3C3C3;}
	.st151{fill:#C4C3C3;}
	.st152{fill:#C4C4C4;}
	.st153{fill:#C5C5C4;}
	.st154{fill:#C5C5C5;}
	.st155{fill:#C6C6C6;}
	.st156{fill:#C7C7C7;}
	.st157{fill:#C8C8C7;}
	.st158{fill:#C8C8C8;}
	.st159{fill:#C9C9C9;}
	.st160{fill:#CACACA;}
	.st161{fill:#CBCACA;}
	.st162{fill:#CBCBCB;}
	.st163{fill:#CCCCCB;}
	.st164{fill:#CCCCCC;}
	.st165{fill:#CDCDCD;}
	.st166{fill:#CECECE;}
	.st167{fill:#CFCFCE;}
	.st168{fill:#CFCFCF;}
	.st169{fill:#D0D0D0;}
	.st170{fill:#D1D1D1;}
	.st171{fill:#D2D1D1;}
	.st172{fill:#D2D2D2;}
	.st173{fill:#D3D3D2;}
	.st174{fill:#D3D3D3;}
	.st175{fill:#D4D4D4;}
	.st176{fill:#D5D5D5;}
	.st177{fill:#D6D6D5;}
	.st178{fill:#D6D6D6;}
	.st179{fill:#D7D7D7;}
	.st180{fill:#D8D8D8;}
	.st181{fill:#D9D8D8;}
	.st182{fill:#D9D9D9;}
	.st183{fill:#DADADA;}
	.st184{fill:#DBDBDB;}
	.st185{fill:#DCDCDC;}
	.st186{fill:#DDDDDC;}
	.st187{fill:#DDDDDD;}
	.st188{fill:#DEDEDE;}
	.st189{fill:#DFDFDF;}
	.st190{fill:#E0DFDF;}
	.st191{fill:#E0E0E0;}
	.st192{fill:#E1E1E1;}
	.st193{fill:#E2E2E2;}
	.st194{fill:#E3E3E3;}
	.st195{fill:#E4E4E3;}
	.st196{fill:#E4E4E4;}
	.st197{fill:#E5E5E5;}
	.st198{fill:#E6E6E6;}
	.st199{fill:#E7E6E6;}
	.st200{fill:#E7E7E7;}
	.st201{fill:#E8E8E8;}
	.st202{fill:#E9E9E9;}
	.st203{fill:#EAEAEA;}
	.st204{fill:#EBEBEA;}
	.st205{fill:#EBEBEB;}
	.st206{fill:#ECECEC;}
	.st207{fill:#EDEDED;}
	.st208{fill:#EEEDED;}
	.st209{fill:#EEEEEE;}
	.st210{fill:#EFEFEF;}
	.st211{fill:#F0F0F0;}
	.st212{fill:#F1F1F1;}
	.st213{fill:#F2F2F2;}
	.st214{fill:#F3F3F3;}
	.st215{fill:#F4F4F4;}
	.st216{fill:#F5F4F4;}
	.st217{fill:#F5F5F5;}
	.st218{fill:#F6F6F6;}
	.st219{fill:#F7F7F7;}
	.st220{fill:#F8F8F8;}
	.st221{fill:#F9F9F9;}
	.st222{fill:#FAFAFA;}
	.st223{fill:#FBFBFB;}
	.st224{fill:#FCFBFB;}
	.st225{fill:#FCFCFC;}
	.st226{fill:#FDFDFD;}
	.st227{fill:none;stroke:#6A6A6A;stroke-width:0.25;}
	.st228{fill:#6A6A6A;}
	.st229{fill:none;stroke:#C6342C;stroke-width:4;}
	.st230{fill:#C6342C;stroke:#C6342C;stroke-width:0.05;}
</style>
<g id="Drawing_00000054957066617534403210000002951486608707077291_">
	<rect x="18.22" y="53.25" class="st0" width="25.66" height="14.42"/>
	<polygon class="st0" points="43.89,25.71 75.92,25.71 91.18,5.67 18.22,5.67 18.22,31.04 43.89,31.04 	"/>
	<path class="st1" d="M18.27,54.87c6.96,0,12.6-5.64,12.6-12.6c0-6.96-5.64-12.6-12.6-12.6c-6.96,0-12.6,5.64-12.6,12.6
		C5.67,49.23,11.31,54.87,18.27,54.87z"/>
	<path class="st2" d="M18.25,54.81c6.94,0,12.57-5.63,12.57-12.57c0-6.94-5.63-12.57-12.57-12.57c-6.94,0-12.57,5.63-12.57,12.57
		C5.68,49.18,11.31,54.81,18.25,54.81z"/>
	<path class="st3" d="M18.23,54.75c6.92,0,12.53-5.61,12.53-12.53c0-6.92-5.61-12.53-12.53-12.53c-6.92,0-12.53,5.61-12.53,12.53
		C5.7,49.14,11.31,54.75,18.23,54.75z"/>
	<path class="st4" d="M18.2,54.68c6.9,0,12.49-5.59,12.49-12.49c0-6.9-5.59-12.49-12.49-12.49c-6.9,0-12.49,5.59-12.49,12.49
		C5.71,49.09,11.3,54.68,18.2,54.68z"/>
	<path class="st5" d="M18.18,54.62c6.88,0,12.45-5.58,12.45-12.45c0-6.88-5.58-12.45-12.45-12.45c-6.88,0-12.45,5.57-12.45,12.45
		C5.73,49.05,11.3,54.62,18.18,54.62z"/>
	<path class="st6" d="M18.16,54.56c6.86,0,12.42-5.56,12.42-12.42c0-6.86-5.56-12.42-12.42-12.42c-6.86,0-12.42,5.56-12.42,12.42
		C5.74,49,11.3,54.56,18.16,54.56z"/>
	<path class="st7" d="M18.13,54.5c6.84,0,12.38-5.54,12.38-12.38c0-6.84-5.54-12.38-12.38-12.38c-6.84,0-12.38,5.54-12.38,12.38
		C5.75,48.95,11.3,54.5,18.13,54.5z"/>
	<path class="st8" d="M18.11,54.43c6.82,0,12.34-5.53,12.34-12.34c0-6.81-5.53-12.34-12.34-12.34c-6.82,0-12.34,5.53-12.34,12.34
		C5.77,48.91,11.29,54.43,18.11,54.43z"/>
	
		<ellipse transform="matrix(0.3827 -0.9239 0.9239 0.3827 -27.7018 42.6796)" class="st9" cx="18.09" cy="42.07" rx="12.3" ry="12.3"/>
	<path class="st10" d="M18.06,54.31c6.77,0,12.27-5.49,12.27-12.26c0-6.77-5.49-12.27-12.27-12.27c-6.77,0-12.27,5.49-12.27,12.27
		C5.8,48.82,11.29,54.31,18.06,54.31z"/>
	<path class="st11" d="M18.04,54.25c6.75,0,12.23-5.48,12.23-12.23c0-6.75-5.47-12.23-12.23-12.23c-6.75,0-12.23,5.47-12.23,12.23
		C5.81,48.77,11.29,54.25,18.04,54.25z"/>
	<path class="st12" d="M18.02,54.19c6.73,0,12.19-5.46,12.19-12.19S24.75,29.8,18.02,29.8C11.28,29.8,5.83,35.26,5.83,42
		S11.28,54.19,18.02,54.19z"/>
	<path class="st13" d="M17.99,54.12c6.71,0,12.15-5.44,12.15-12.15c0-6.71-5.44-12.15-12.15-12.15c-6.71,0-12.15,5.44-12.15,12.15
		C5.84,48.68,11.28,54.12,17.99,54.12z"/>
	<path class="st14" d="M17.97,54.06c6.69,0,12.11-5.42,12.11-12.11c0-6.69-5.43-12.12-12.11-12.12c-6.69,0-12.12,5.42-12.12,12.12
		C5.85,48.64,11.28,54.06,17.97,54.06z"/>
	<path class="st15" d="M17.95,54c6.67,0,12.08-5.41,12.08-12.08c0-6.67-5.41-12.08-12.08-12.08c-6.67,0-12.08,5.41-12.08,12.08
		C5.87,48.59,11.28,54,17.95,54z"/>
	<path class="st16" d="M17.92,53.94c6.65,0,12.04-5.39,12.04-12.04c0-6.65-5.39-12.04-12.04-12.04c-6.65,0-12.04,5.39-12.04,12.04
		C5.88,48.54,11.27,53.94,17.92,53.94z"/>
	<path class="st17" d="M17.9,53.87c6.63,0,12-5.37,12-12c0-6.63-5.37-12-12-12c-6.63,0-12,5.37-12,12
		C5.9,48.5,11.27,53.87,17.9,53.87z"/>
	<path class="st18" d="M17.88,53.81c6.61,0,11.97-5.36,11.97-11.97c0-6.61-5.36-11.96-11.97-11.96c-6.61,0-11.97,5.36-11.97,11.96
		C5.91,48.45,11.27,53.81,17.88,53.81z"/>
	<path class="st19" d="M17.85,53.75c6.59,0,11.93-5.34,11.93-11.93c0-6.59-5.34-11.93-11.93-11.93c-6.59,0-11.93,5.34-11.93,11.93
		C5.93,48.41,11.27,53.75,17.85,53.75z"/>
	<path class="st20" d="M17.83,53.69c6.57,0,11.89-5.32,11.89-11.89c0-6.57-5.32-11.89-11.89-11.89c-6.57,0-11.89,5.32-11.89,11.89
		C5.94,48.36,11.26,53.69,17.83,53.69z"/>
	<path class="st21" d="M17.81,53.62c6.55,0,11.85-5.31,11.85-11.85c0-6.55-5.31-11.85-11.85-11.85c-6.55,0-11.85,5.31-11.85,11.85
		C5.95,48.32,11.26,53.62,17.81,53.62z"/>
	<path class="st22" d="M17.78,53.56c6.52,0,11.82-5.29,11.82-11.82c0-6.52-5.29-11.81-11.82-11.81c-6.52,0-11.81,5.29-11.81,11.81
		C5.97,48.27,11.26,53.56,17.78,53.56z"/>
	<path class="st23" d="M17.76,53.5c6.5,0,11.78-5.27,11.78-11.78c0-6.5-5.27-11.78-11.78-11.78c-6.5,0-11.78,5.27-11.78,11.78
		C5.98,48.23,11.26,53.5,17.76,53.5z"/>
	<path class="st24" d="M17.74,53.44c6.48,0,11.74-5.26,11.74-11.74c0-6.48-5.26-11.74-11.74-11.74C11.25,29.96,6,35.22,6,41.7
		C6,48.18,11.25,53.44,17.74,53.44z"/>
	<path class="st25" d="M17.71,53.38c6.46,0,11.7-5.24,11.7-11.7s-5.24-11.7-11.7-11.7c-6.46,0-11.7,5.24-11.7,11.7
		S11.25,53.38,17.71,53.38z"/>
	<path class="st26" d="M17.69,53.31c6.44,0,11.66-5.22,11.66-11.66c0-6.44-5.22-11.66-11.66-11.66c-6.44,0-11.66,5.22-11.66,11.66
		C6.03,48.09,11.25,53.31,17.69,53.31z"/>
	<path class="st27" d="M17.67,53.25c6.42,0,11.63-5.2,11.63-11.63c0-6.42-5.2-11.63-11.63-11.63c-6.42,0-11.63,5.2-11.63,11.63
		C6.04,48.04,11.25,53.25,17.67,53.25z"/>
	<path class="st28" d="M17.64,53.19c6.4,0,11.59-5.19,11.59-11.59c0-6.4-5.19-11.59-11.59-11.59c-6.4,0-11.59,5.19-11.59,11.59
		C6.06,48,11.24,53.19,17.64,53.19z"/>
	<path class="st29" d="M17.62,53.13c6.38,0,11.55-5.17,11.55-11.55c0-6.38-5.17-11.55-11.55-11.55c-6.38,0-11.55,5.17-11.55,11.55
		C6.07,47.95,11.24,53.13,17.62,53.13z"/>
	<path class="st30" d="M17.6,53.06c6.36,0,11.51-5.15,11.51-11.51c0-6.36-5.16-11.51-11.51-11.51c-6.36,0-11.51,5.15-11.51,11.51
		C6.08,47.91,11.24,53.06,17.6,53.06z"/>
	<path class="st31" d="M17.57,53c6.34,0,11.48-5.14,11.48-11.48c0-6.34-5.14-11.47-11.48-11.47c-6.34,0-11.48,5.14-11.48,11.47
		C6.1,47.86,11.23,53,17.57,53z"/>
	<path class="st32" d="M17.55,52.94c6.32,0,11.44-5.12,11.44-11.44c0-6.32-5.12-11.44-11.44-11.44c-6.32,0-11.44,5.12-11.44,11.44
		C6.11,47.82,11.23,52.94,17.55,52.94z"/>
	<path class="st33" d="M17.53,52.88c6.3,0,11.4-5.1,11.4-11.4c0-6.3-5.1-11.4-11.4-11.4c-6.3,0-11.4,5.1-11.4,11.4
		C6.13,47.77,11.23,52.88,17.53,52.88z"/>
	<path class="st34" d="M17.5,52.81c6.27,0,11.36-5.09,11.36-11.36c0-6.28-5.09-11.36-11.36-11.36c-6.28,0-11.36,5.09-11.36,11.36
		C6.14,47.73,11.23,52.81,17.5,52.81z"/>
	<path class="st35" d="M17.48,52.75c6.25,0,11.33-5.07,11.33-11.32c0-6.25-5.07-11.32-11.33-11.32c-6.25,0-11.33,5.07-11.33,11.32
		C6.15,47.68,11.22,52.75,17.48,52.75z"/>
	<path class="st36" d="M17.46,52.69c6.23,0,11.29-5.05,11.29-11.29c0-6.23-5.05-11.29-11.29-11.29c-6.23,0-11.29,5.05-11.29,11.29
		C6.17,47.64,11.22,52.69,17.46,52.69z"/>
	<path class="st37" d="M17.43,52.63c6.21,0,11.25-5.04,11.25-11.25c0-6.21-5.04-11.25-11.25-11.25c-6.21,0-11.25,5.04-11.25,11.25
		C6.18,47.59,11.22,52.63,17.43,52.63z"/>
	<path class="st38" d="M17.41,52.56c6.19,0,11.21-5.02,11.21-11.21S23.6,30.14,17.41,30.14c-6.19,0-11.21,5.02-11.21,11.21
		S11.22,52.56,17.41,52.56z"/>
	<path class="st39" d="M17.39,52.5c6.17,0,11.17-5,11.17-11.17s-5-11.17-11.17-11.17s-11.17,5-11.17,11.17S11.21,52.5,17.39,52.5z"
		/>
	<path class="st40" d="M17.36,52.44c6.15,0,11.14-4.99,11.14-11.14c0-6.15-4.99-11.14-11.14-11.14c-6.15,0-11.14,4.99-11.14,11.14
		C6.23,47.45,11.21,52.44,17.36,52.44z"/>
	<path class="st41" d="M17.34,52.38c6.13,0,11.1-4.97,11.1-11.1c0-6.13-4.97-11.1-11.1-11.1c-6.13,0-11.1,4.97-11.1,11.1
		C6.24,47.41,11.21,52.38,17.34,52.38z"/>
	<path class="st42" d="M17.32,52.32c6.11,0,11.06-4.95,11.06-11.06c0-6.11-4.95-11.06-11.06-11.06c-6.11,0-11.06,4.95-11.06,11.06
		C6.25,47.36,11.21,52.32,17.32,52.32z"/>
	<path class="st43" d="M17.29,52.25c6.09,0,11.02-4.94,11.02-11.02c0-6.09-4.94-11.02-11.02-11.02c-6.09,0-11.02,4.94-11.02,11.02
		C6.27,47.32,11.2,52.25,17.29,52.25z"/>
	<path class="st44" d="M17.27,52.19c6.07,0,10.99-4.92,10.99-10.99c0-6.07-4.92-10.99-10.99-10.99c-6.07,0-10.99,4.92-10.99,10.99
		C6.28,47.27,11.2,52.19,17.27,52.19z"/>
	<path class="st45" d="M17.25,52.13c6.05,0,10.95-4.9,10.95-10.95c0-6.05-4.9-10.95-10.95-10.95c-6.05,0-10.95,4.9-10.95,10.95
		C6.3,47.23,11.2,52.13,17.25,52.13z"/>
	<path class="st46" d="M17.22,52.07c6.03,0,10.91-4.89,10.91-10.91c0-6.03-4.89-10.91-10.91-10.91c-6.03,0-10.91,4.89-10.91,10.91
		C6.31,47.18,11.2,52.07,17.22,52.07z"/>
	<path class="st47" d="M17.2,52c6.01,0,10.87-4.87,10.87-10.87S23.2,30.26,17.2,30.26c-6.01,0-10.87,4.87-10.87,10.87
		S11.19,52,17.2,52z"/>
	<path class="st48" d="M17.18,51.94c5.98,0,10.84-4.85,10.84-10.83c0-5.99-4.85-10.84-10.84-10.84c-5.99,0-10.84,4.85-10.84,10.84
		C6.34,47.09,11.19,51.94,17.18,51.94z"/>
	<path class="st49" d="M17.15,51.88c5.97,0,10.8-4.84,10.8-10.8c0-5.96-4.83-10.8-10.8-10.8c-5.96,0-10.8,4.84-10.8,10.8
		C6.35,47.04,11.19,51.88,17.15,51.88z"/>
	<path class="st50" d="M17.13,51.82c5.94,0,10.76-4.82,10.76-10.76c0-5.94-4.82-10.76-10.76-10.76c-5.94,0-10.76,4.82-10.76,10.76
		C6.37,47,11.19,51.82,17.13,51.82z"/>
	<path class="st51" d="M17.11,51.75c5.92,0,10.72-4.8,10.72-10.72c0-5.92-4.8-10.72-10.72-10.72c-5.92,0-10.72,4.8-10.72,10.72
		C6.38,46.95,11.18,51.75,17.11,51.75z"/>
	
		<ellipse transform="matrix(0.3827 -0.9239 0.9239 0.3827 -27.3406 41.0965)" class="st52" cx="17.08" cy="41.01" rx="10.69" ry="10.69"/>
	<path class="st53" d="M17.06,51.63c5.88,0,10.65-4.77,10.65-10.65c0-5.88-4.77-10.65-10.65-10.65c-5.88,0-10.65,4.77-10.65,10.65
		C6.41,46.86,11.18,51.63,17.06,51.63z"/>
	<path class="st54" d="M17.04,51.57c5.86,0,10.61-4.75,10.61-10.61c0-5.86-4.75-10.61-10.61-10.61c-5.86,0-10.61,4.75-10.61,10.61
		C6.43,46.82,11.18,51.57,17.04,51.57z"/>
	<path class="st55" d="M17.01,51.51c5.84,0,10.57-4.73,10.57-10.57c0-5.84-4.73-10.57-10.57-10.57c-5.84,0-10.57,4.73-10.57,10.57
		C6.44,46.77,11.17,51.51,17.01,51.51z"/>
	<circle class="st56" cx="16.99" cy="40.91" r="10.53"/>
	<path class="st57" d="M16.97,51.38c5.8,0,10.5-4.7,10.5-10.5c0-5.8-4.7-10.5-10.5-10.5c-5.8,0-10.5,4.7-10.5,10.5
		C6.47,46.68,11.17,51.38,16.97,51.38z"/>
	<path class="st58" d="M16.94,51.32c5.78,0,10.46-4.68,10.46-10.46c0-5.78-4.68-10.46-10.46-10.46c-5.78,0-10.46,4.68-10.46,10.46
		C6.48,46.64,11.17,51.32,16.94,51.32z"/>
	<path class="st59" d="M16.92,51.26c5.76,0,10.42-4.67,10.42-10.42c0-5.76-4.67-10.42-10.42-10.42c-5.76,0-10.42,4.67-10.42,10.42
		C6.5,46.59,11.16,51.26,16.92,51.26z"/>
	<path class="st60" d="M16.9,51.19c5.74,0,10.38-4.65,10.38-10.38c0-5.73-4.65-10.38-10.38-10.38c-5.74,0-10.38,4.65-10.38,10.38
		C6.51,46.55,11.16,51.19,16.9,51.19z"/>
	<path class="st61" d="M16.87,51.13c5.71,0,10.35-4.63,10.35-10.35s-4.63-10.35-10.35-10.35c-5.71,0-10.35,4.63-10.35,10.35
		S11.16,51.13,16.87,51.13z"/>
	<path class="st62" d="M16.85,51.07c5.69,0,10.31-4.62,10.31-10.31c0-5.69-4.62-10.31-10.31-10.31c-5.69,0-10.31,4.62-10.31,10.31
		C6.54,46.45,11.15,51.07,16.85,51.07z"/>
	<path class="st63" d="M16.83,51.01c5.67,0,10.27-4.6,10.27-10.27s-4.6-10.27-10.27-10.27c-5.67,0-10.27,4.6-10.27,10.27
		S11.15,51.01,16.83,51.01z"/>
	<path class="st64" d="M16.8,50.94c5.65,0,10.23-4.58,10.23-10.23c0-5.65-4.58-10.23-10.23-10.23c-5.65,0-10.23,4.58-10.23,10.23
		C6.57,46.36,11.15,50.94,16.8,50.94z"/>
	<path class="st65" d="M16.78,50.88c5.63,0,10.2-4.56,10.2-10.2c0-5.63-4.57-10.2-10.2-10.2c-5.63,0-10.2,4.56-10.2,10.2
		C6.58,46.32,11.15,50.88,16.78,50.88z"/>
	<path class="st66" d="M16.76,50.82c5.61,0,10.16-4.55,10.16-10.16c0-5.61-4.55-10.16-10.16-10.16c-5.61,0-10.16,4.55-10.16,10.16
		C6.6,46.27,11.14,50.82,16.76,50.82z"/>
	<path class="st67" d="M16.73,50.76c5.59,0,10.12-4.53,10.12-10.12c0-5.59-4.53-10.12-10.12-10.12c-5.59,0-10.12,4.53-10.12,10.12
		C6.61,46.23,11.14,50.76,16.73,50.76z"/>
	<path class="st68" d="M16.71,50.7c5.57,0,10.08-4.51,10.08-10.08c0-5.57-4.51-10.08-10.08-10.08c-5.57,0-10.08,4.51-10.08,10.08
		C6.62,46.18,11.14,50.7,16.71,50.7z"/>
	<path class="st69" d="M16.68,50.63c5.55,0,10.05-4.5,10.05-10.05c0-5.55-4.5-10.05-10.05-10.05c-5.55,0-10.05,4.5-10.05,10.05
		C6.64,46.14,11.14,50.63,16.68,50.63z"/>
	<path class="st70" d="M16.66,50.57c5.53,0,10.01-4.48,10.01-10.01c0-5.53-4.48-10.01-10.01-10.01c-5.53,0-10.01,4.48-10.01,10.01
		C6.65,46.09,11.13,50.57,16.66,50.57z"/>
	<path class="st71" d="M16.64,50.51c5.51,0,9.97-4.46,9.97-9.97c0-5.51-4.46-9.97-9.97-9.97c-5.51,0-9.97,4.46-9.97,9.97
		C6.67,46.05,11.13,50.51,16.64,50.51z"/>
	
		<ellipse transform="matrix(0.0128 -0.9999 0.9999 0.0128 -24.1082 56.6078)" class="st72" cx="16.61" cy="40.51" rx="9.93" ry="9.93"/>
	<path class="st73" d="M16.59,50.38c5.46,0,9.9-4.43,9.9-9.89c0-5.47-4.43-9.9-9.9-9.9c-5.46,0-9.9,4.43-9.9,9.9
		C6.7,45.95,11.13,50.38,16.59,50.38z"/>
	<path class="st74" d="M16.57,50.32c5.44,0,9.86-4.41,9.86-9.86c0-5.44-4.41-9.86-9.86-9.86c-5.44,0-9.86,4.41-9.86,9.86
		C6.71,45.91,11.12,50.32,16.57,50.32z"/>
	<path class="st75" d="M16.55,50.26c5.42,0,9.82-4.4,9.82-9.82c0-5.42-4.4-9.82-9.82-9.82c-5.42,0-9.82,4.4-9.82,9.82
		C6.73,45.86,11.12,50.26,16.55,50.26z"/>
	<path class="st76" d="M16.52,50.2c5.4,0,9.78-4.38,9.78-9.78c0-5.4-4.38-9.78-9.78-9.78c-5.4,0-9.78,4.38-9.78,9.78
		C6.74,45.82,11.12,50.2,16.52,50.2z"/>
	<path class="st77" d="M16.5,50.13c5.38,0,9.74-4.36,9.74-9.74c0-5.38-4.36-9.74-9.74-9.74c-5.38,0-9.74,4.36-9.74,9.74
		C6.75,45.77,11.12,50.13,16.5,50.13z"/>
	<path class="st78" d="M16.47,50.07c5.36,0,9.71-4.34,9.71-9.71c0-5.36-4.35-9.71-9.71-9.71c-5.36,0-9.71,4.35-9.71,9.71
		C6.77,45.73,11.11,50.07,16.47,50.07z"/>
	<path class="st79" d="M16.45,50.01c5.34,0,9.67-4.33,9.67-9.67c0-5.34-4.33-9.67-9.67-9.67c-5.34,0-9.67,4.33-9.67,9.67
		C6.78,45.68,11.11,50.01,16.45,50.01z"/>
	<path class="st80" d="M16.43,49.95c5.32,0,9.63-4.31,9.63-9.63s-4.31-9.63-9.63-9.63c-5.32,0-9.63,4.31-9.63,9.63
		S11.11,49.95,16.43,49.95z"/>
	<path class="st81" d="M16.41,49.89c5.3,0,9.59-4.3,9.59-9.59c0-5.3-4.3-9.59-9.59-9.59c-5.3,0-9.59,4.3-9.59,9.59
		C6.81,45.59,11.11,49.89,16.41,49.89z"/>
	<path class="st82" d="M16.38,49.82c5.28,0,9.56-4.28,9.56-9.56c0-5.28-4.28-9.56-9.56-9.56c-5.28,0-9.56,4.28-9.56,9.56
		C6.83,45.54,11.1,49.82,16.38,49.82z"/>
	<path class="st83" d="M16.36,49.76c5.26,0,9.52-4.26,9.52-9.52c0-5.26-4.26-9.52-9.52-9.52c-5.26,0-9.52,4.26-9.52,9.52
		C6.84,45.5,11.1,49.76,16.36,49.76z"/>
	<path class="st84" d="M16.34,49.7c5.24,0,9.48-4.25,9.48-9.48c0-5.24-4.24-9.48-9.48-9.48c-5.24,0-9.48,4.24-9.48,9.48
		C6.85,45.45,11.1,49.7,16.34,49.7z"/>
	<path class="st85" d="M16.31,49.64c5.22,0,9.44-4.23,9.44-9.44c0-5.22-4.23-9.44-9.44-9.44c-5.21,0-9.44,4.23-9.44,9.44
		C6.87,45.41,11.1,49.64,16.31,49.64z"/>
	<path class="st86" d="M16.29,49.57c5.2,0,9.41-4.21,9.41-9.41c0-5.19-4.21-9.41-9.41-9.41c-5.19,0-9.41,4.21-9.41,9.41
		C6.88,45.36,11.09,49.57,16.29,49.57z"/>
	<path class="st87" d="M16.26,49.51c5.17,0,9.37-4.2,9.37-9.37s-4.2-9.37-9.37-9.37c-5.17,0-9.37,4.2-9.37,9.37
		S11.09,49.51,16.26,49.51z"/>
	<path class="st88" d="M16.24,49.45c5.15,0,9.33-4.18,9.33-9.33c0-5.15-4.18-9.33-9.33-9.33c-5.15,0-9.33,4.18-9.33,9.33
		C6.91,45.27,11.09,49.45,16.24,49.45z"/>
	<path class="st89" d="M16.22,49.39c5.13,0,9.29-4.16,9.29-9.29c0-5.13-4.16-9.29-9.29-9.29c-5.13,0-9.29,4.16-9.29,9.29
		C6.92,45.23,11.09,49.39,16.22,49.39z"/>
	<path class="st90" d="M16.19,49.32c5.11,0,9.26-4.14,9.26-9.26c0-5.11-4.15-9.26-9.26-9.26c-5.11,0-9.25,4.14-9.25,9.26
		C6.94,45.18,11.08,49.32,16.19,49.32z"/>
	<path class="st91" d="M16.17,49.26c5.09,0,9.22-4.13,9.22-9.22c0-5.09-4.13-9.22-9.22-9.22c-5.09,0-9.22,4.13-9.22,9.22
		C6.95,45.14,11.08,49.26,16.17,49.26z"/>
	
		<ellipse transform="matrix(5.208334e-03 -1 1 5.208334e-03 -23.9552 55.9578)" class="st92" cx="16.15" cy="40.02" rx="9.18" ry="9.18"/>
	<path class="st93" d="M16.12,49.14c5.05,0,9.14-4.09,9.14-9.14c0-5.05-4.09-9.14-9.14-9.14c-5.05,0-9.14,4.09-9.14,9.14
		C6.98,45.04,11.08,49.14,16.12,49.14z"/>
	<path class="st94" d="M16.1,49.07c5.03,0,9.1-4.08,9.1-9.1c0-5.03-4.08-9.1-9.1-9.1c-5.03,0-9.11,4.08-9.11,9.1
		C7,45,11.07,49.07,16.1,49.07z"/>
	<path class="st95" d="M16.08,49.01c5.01,0,9.07-4.06,9.07-9.07c0-5.01-4.06-9.07-9.07-9.07c-5.01,0-9.07,4.06-9.07,9.07
		C7.01,44.95,11.07,49.01,16.08,49.01z"/>
	
		<ellipse transform="matrix(0.3827 -0.9239 0.9239 0.3827 -26.9716 39.4763)" class="st96" cx="16.05" cy="39.92" rx="9.03" ry="9.03"/>
	<path class="st97" d="M16.03,48.89c4.97,0,8.99-4.03,8.99-8.99c0-4.97-4.03-8.99-8.99-8.99c-4.97,0-8.99,4.03-8.99,8.99
		C7.04,44.86,11.06,48.89,16.03,48.89z"/>
	<path class="st98" d="M16.01,48.83c4.95,0,8.95-4.01,8.95-8.95c0-4.95-4.01-8.96-8.95-8.96c-4.95,0-8.95,4.01-8.95,8.96
		C7.05,44.82,11.06,48.83,16.01,48.83z"/>
	<path class="st99" d="M15.98,48.76c4.92,0,8.92-3.99,8.92-8.92c0-4.93-3.99-8.92-8.92-8.92c-4.93,0-8.92,3.99-8.92,8.92
		C7.07,44.77,11.06,48.76,15.98,48.76z"/>
	<path class="st100" d="M15.96,48.7c4.9,0,8.88-3.98,8.88-8.88c0-4.9-3.97-8.88-8.88-8.88c-4.9,0-8.88,3.98-8.88,8.88
		C7.08,44.73,11.06,48.7,15.96,48.7z"/>
	<path class="st101" d="M15.94,48.64c4.88,0,8.84-3.96,8.84-8.84c0-4.88-3.96-8.84-8.84-8.84c-4.88,0-8.84,3.96-8.84,8.84
		C7.1,44.68,11.05,48.64,15.94,48.64z"/>
	
		<ellipse transform="matrix(0.0153 -0.9999 0.9999 0.0153 -24.0973 55.0766)" class="st102" cx="15.91" cy="39.77" rx="8.8" ry="8.8"/>
	<circle class="st103" cx="15.89" cy="39.75" r="8.77"/>
	<path class="st104" d="M15.87,48.45c4.82,0,8.73-3.91,8.73-8.73c0-4.82-3.91-8.73-8.73-8.73c-4.82,0-8.73,3.91-8.73,8.73
		C7.14,44.54,11.05,48.45,15.87,48.45z"/>
	<path class="st105" d="M15.84,48.39c4.8,0,8.69-3.89,8.69-8.69c0-4.8-3.89-8.69-8.69-8.69c-4.8,0-8.69,3.89-8.69,8.69
		C7.15,44.5,11.04,48.39,15.84,48.39z"/>
	<path class="st106" d="M15.82,48.33c4.78,0,8.65-3.88,8.65-8.65c0-4.78-3.88-8.65-8.65-8.65c-4.78,0-8.65,3.87-8.65,8.65
		C7.17,44.45,11.04,48.33,15.82,48.33z"/>
	<path class="st107" d="M15.8,48.26c4.76,0,8.62-3.86,8.62-8.62c0-4.76-3.86-8.62-8.62-8.62c-4.76,0-8.62,3.86-8.62,8.62
		C7.18,44.41,11.04,48.26,15.8,48.26z"/>
	<path class="st108" d="M15.77,48.2c4.74,0,8.58-3.84,8.58-8.58c0-4.74-3.84-8.58-8.58-8.58c-4.74,0-8.58,3.84-8.58,8.58
		C7.19,44.36,11.04,48.2,15.77,48.2z"/>
	<path class="st109" d="M15.75,48.14c4.72,0,8.54-3.82,8.54-8.54c0-4.72-3.82-8.54-8.54-8.54c-4.72,0-8.54,3.82-8.54,8.54
		C7.21,44.32,11.03,48.14,15.75,48.14z"/>
	<path class="st110" d="M15.73,48.08c4.7,0,8.5-3.81,8.5-8.5c0-4.7-3.81-8.5-8.5-8.5c-4.7,0-8.5,3.81-8.5,8.5
		C7.22,44.27,11.03,48.08,15.73,48.08z"/>
	<path class="st111" d="M15.7,48.02c4.68,0,8.47-3.79,8.47-8.47c0-4.67-3.79-8.47-8.47-8.47c-4.68,0-8.47,3.79-8.47,8.47
		C7.24,44.23,11.03,48.02,15.7,48.02z"/>
	<path class="st112" d="M15.68,47.95c4.66,0,8.43-3.77,8.43-8.43c0-4.66-3.77-8.43-8.43-8.43c-4.65,0-8.43,3.77-8.43,8.43
		C7.25,44.18,11.03,47.95,15.68,47.95z"/>
	<path class="st113" d="M15.66,47.89c4.63,0,8.39-3.76,8.39-8.39c0-4.63-3.76-8.39-8.39-8.39c-4.63,0-8.39,3.76-8.39,8.39
		C7.27,44.14,11.02,47.89,15.66,47.89z"/>
	<path class="st114" d="M15.63,47.83c4.61,0,8.35-3.74,8.35-8.35c0-4.61-3.74-8.35-8.35-8.35c-4.61,0-8.35,3.74-8.35,8.35
		C7.28,44.09,11.02,47.83,15.63,47.83z"/>
	<path class="st115" d="M15.61,47.77c4.59,0,8.32-3.72,8.32-8.32c0-4.59-3.72-8.31-8.32-8.31c-4.59,0-8.32,3.72-8.32,8.31
		C7.29,44.04,11.02,47.77,15.61,47.77z"/>
	<path class="st116" d="M15.59,47.71c4.57,0,8.28-3.71,8.28-8.28s-3.71-8.28-8.28-8.28c-4.57,0-8.28,3.71-8.28,8.28
		S11.02,47.71,15.59,47.71z"/>
	<path class="st117" d="M15.56,47.64c4.55,0,8.24-3.69,8.24-8.24c0-4.55-3.69-8.24-8.24-8.24c-4.55,0-8.24,3.69-8.24,8.24
		C7.32,43.95,11.01,47.64,15.56,47.64z"/>
	<path class="st118" d="M15.54,47.58c4.53,0,8.2-3.67,8.2-8.2s-3.67-8.2-8.2-8.2c-4.53,0-8.2,3.67-8.2,8.2S11.01,47.58,15.54,47.58z
		"/>
	<path class="st119" d="M15.52,47.52c4.51,0,8.17-3.66,8.17-8.16s-3.66-8.16-8.17-8.16c-4.51,0-8.16,3.66-8.16,8.16
		S11.01,47.52,15.52,47.52z"/>
	<path class="st120" d="M15.49,47.46c4.49,0,8.13-3.64,8.13-8.13c0-4.49-3.64-8.13-8.13-8.13c-4.49,0-8.13,3.64-8.13,8.13
		C7.37,43.82,11.01,47.46,15.49,47.46z"/>
	<path class="st121" d="M15.47,47.39c4.47,0,8.09-3.62,8.09-8.09c0-4.47-3.62-8.09-8.09-8.09c-4.47,0-8.09,3.62-8.09,8.09
		C7.38,43.77,11,47.39,15.47,47.39z"/>
	<path class="st122" d="M15.45,47.33c4.45,0,8.05-3.61,8.05-8.05c0-4.45-3.61-8.05-8.05-8.05c-4.45,0-8.05,3.6-8.05,8.05
		C7.4,43.72,11,47.33,15.45,47.33z"/>
	<path class="st123" d="M15.42,47.27c4.43,0,8.02-3.59,8.02-8.01c0-4.43-3.59-8.01-8.02-8.01c-4.42,0-8.01,3.59-8.01,8.01
		C7.41,43.68,11,47.27,15.42,47.27z"/>
	<path class="st124" d="M15.4,47.21c4.4,0,7.98-3.57,7.98-7.98c0-4.4-3.57-7.98-7.98-7.98c-4.41,0-7.98,3.57-7.98,7.98
		C7.42,43.63,11,47.21,15.4,47.21z"/>
	<path class="st125" d="M15.38,47.14c4.38,0,7.94-3.55,7.94-7.94c0-4.38-3.55-7.94-7.94-7.94c-4.39,0-7.94,3.55-7.94,7.94
		C7.44,43.59,10.99,47.14,15.38,47.14z"/>
	<path class="st126" d="M15.35,47.08c4.36,0,7.9-3.54,7.9-7.9s-3.54-7.9-7.9-7.9c-4.36,0-7.9,3.54-7.9,7.9S10.99,47.08,15.35,47.08z
		"/>
	<path class="st127" d="M15.33,47.02c4.34,0,7.86-3.52,7.86-7.86c0-4.34-3.52-7.86-7.86-7.86c-4.34,0-7.86,3.52-7.86,7.86
		C7.47,43.5,10.99,47.02,15.33,47.02z"/>
	<path class="st128" d="M15.31,46.96c4.32,0,7.83-3.5,7.83-7.82c0-4.32-3.5-7.83-7.83-7.83c-4.32,0-7.83,3.5-7.83,7.83
		C7.48,43.45,10.99,46.96,15.31,46.96z"/>
	<path class="st129" d="M15.28,46.89c4.3,0,7.79-3.49,7.79-7.79c0-4.3-3.49-7.79-7.79-7.79c-4.3,0-7.79,3.49-7.79,7.79
		C7.5,43.41,10.98,46.89,15.28,46.89z"/>
	<path class="st130" d="M15.26,46.83c4.28,0,7.75-3.47,7.75-7.75c0-4.28-3.47-7.75-7.75-7.75c-4.28,0-7.75,3.47-7.75,7.75
		C7.51,43.36,10.98,46.83,15.26,46.83z"/>
	<path class="st131" d="M15.24,46.77c4.26,0,7.71-3.45,7.71-7.71c0-4.26-3.45-7.71-7.71-7.71c-4.26,0-7.71,3.45-7.71,7.71
		C7.52,43.32,10.98,46.77,15.24,46.77z"/>
	<path class="st132" d="M15.21,46.71c4.24,0,7.68-3.44,7.68-7.68c0-4.24-3.44-7.67-7.68-7.67c-4.24,0-7.67,3.44-7.67,7.67
		C7.54,43.27,10.97,46.71,15.21,46.71z"/>
	<path class="st133" d="M15.19,46.65c4.22,0,7.64-3.42,7.64-7.64c0-4.22-3.42-7.64-7.64-7.64c-4.22,0-7.64,3.42-7.64,7.64
		C7.55,43.23,10.97,46.65,15.19,46.65z"/>
	<path class="st133" d="M15.17,46.58c4.2,0,7.6-3.4,7.6-7.6c0-4.2-3.4-7.6-7.6-7.6c-4.2,0-7.6,3.4-7.6,7.6
		C7.57,43.18,10.97,46.58,15.17,46.58z"/>
	<path class="st134" d="M15.14,46.52c4.18,0,7.56-3.39,7.56-7.56c0-4.18-3.39-7.56-7.56-7.56c-4.18,0-7.56,3.39-7.56,7.56
		C7.58,43.13,10.97,46.52,15.14,46.52z"/>
	<path class="st135" d="M15.12,46.46c4.16,0,7.52-3.37,7.52-7.52c0-4.16-3.37-7.53-7.52-7.53c-4.16,0-7.52,3.37-7.52,7.53
		C7.6,43.09,10.96,46.46,15.12,46.46z"/>
	
		<ellipse transform="matrix(4.132447e-03 -1 1 4.132447e-03 -23.8734 53.8442)" class="st136" cx="15.1" cy="38.91" rx="7.49" ry="7.49"/>
	<path class="st137" d="M15.07,46.33c4.11,0,7.45-3.34,7.45-7.45c0-4.11-3.34-7.45-7.45-7.45c-4.11,0-7.45,3.34-7.45,7.45
		C7.62,43,10.96,46.33,15.07,46.33z"/>
	<path class="st138" d="M15.05,46.27c4.09,0,7.41-3.32,7.41-7.41c0-4.09-3.32-7.41-7.41-7.41c-4.09,0-7.41,3.32-7.41,7.41
		C7.64,42.95,10.96,46.27,15.05,46.27z"/>
	<path class="st139" d="M15.03,46.21c4.07,0,7.37-3.3,7.37-7.37c0-4.07-3.3-7.37-7.37-7.37c-4.07,0-7.37,3.3-7.37,7.37
		C7.65,42.91,10.95,46.21,15.03,46.21z"/>
	<path class="st140" d="M15,46.15c4.05,0,7.34-3.29,7.34-7.34c0-4.05-3.29-7.34-7.34-7.34c-4.05,0-7.34,3.28-7.34,7.34
		C7.67,42.86,10.95,46.15,15,46.15z"/>
	<path class="st141" d="M14.98,46.08c4.03,0,7.3-3.27,7.3-7.3c0-4.03-3.27-7.3-7.3-7.3c-4.03,0-7.3,3.27-7.3,7.3
		C7.68,42.82,10.95,46.08,14.98,46.08z"/>
	<path class="st142" d="M14.96,46.02c4.01,0,7.26-3.25,7.26-7.26c0-4.01-3.25-7.26-7.26-7.26c-4.01,0-7.26,3.25-7.26,7.26
		C7.7,42.77,10.95,46.02,14.96,46.02z"/>
	<path class="st143" d="M14.93,45.96c3.99,0,7.22-3.23,7.22-7.22c0-3.99-3.23-7.22-7.22-7.22c-3.99,0-7.22,3.24-7.22,7.22
		C7.71,42.73,10.94,45.96,14.93,45.96z"/>
	<path class="st144" d="M14.91,45.9c3.97,0,7.19-3.22,7.19-7.19c0-3.97-3.22-7.19-7.19-7.19c-3.97,0-7.19,3.22-7.19,7.19
		C7.72,42.68,10.94,45.9,14.91,45.9z"/>
	<path class="st144" d="M14.89,45.84c3.95,0,7.15-3.2,7.15-7.15c0-3.95-3.2-7.15-7.15-7.15c-3.95,0-7.15,3.2-7.15,7.15
		C7.74,42.63,10.94,45.84,14.89,45.84z"/>
	<path class="st145" d="M14.86,45.77c3.93,0,7.11-3.18,7.11-7.11c0-3.93-3.18-7.11-7.11-7.11c-3.93,0-7.11,3.18-7.11,7.11
		C7.75,42.59,10.94,45.77,14.86,45.77z"/>
	<path class="st146" d="M14.84,45.71c3.91,0,7.07-3.17,7.07-7.07c0-3.91-3.17-7.07-7.07-7.07c-3.91,0-7.07,3.17-7.07,7.07
		C7.77,42.54,10.93,45.71,14.84,45.71z"/>
	<path class="st147" d="M14.82,45.65c3.88,0,7.04-3.15,7.04-7.04c0-3.89-3.15-7.04-7.04-7.04c-3.89,0-7.04,3.15-7.04,7.04
		C7.78,42.5,10.93,45.65,14.82,45.65z"/>
	<path class="st148" d="M14.79,45.59c3.87,0,7-3.13,7-7c0-3.87-3.13-7-7-7c-3.86,0-7,3.13-7,7C7.79,42.45,10.93,45.59,14.79,45.59z"
		/>
	<path class="st149" d="M14.77,45.52c3.84,0,6.96-3.12,6.96-6.96c0-3.84-3.12-6.96-6.96-6.96c-3.84,0-6.96,3.12-6.96,6.96
		C7.81,42.41,10.93,45.52,14.77,45.52z"/>
	<path class="st150" d="M14.75,45.46c3.82,0,6.92-3.1,6.92-6.92c0-3.82-3.1-6.92-6.92-6.92c-3.82,0-6.92,3.1-6.92,6.92
		C7.82,42.36,10.92,45.46,14.75,45.46z"/>
	<path class="st151" d="M14.72,45.4c3.8,0,6.89-3.08,6.89-6.89c0-3.8-3.08-6.89-6.89-6.89c-3.8,0-6.89,3.08-6.89,6.89
		C7.84,42.32,10.92,45.4,14.72,45.4z"/>
	<path class="st152" d="M14.7,45.34c3.78,0,6.85-3.07,6.85-6.85c0-3.78-3.07-6.85-6.85-6.85c-3.78,0-6.85,3.06-6.85,6.85
		C7.85,42.27,10.92,45.34,14.7,45.34z"/>
	<path class="st153" d="M14.68,45.27c3.76,0,6.81-3.05,6.81-6.81c0-3.76-3.05-6.81-6.81-6.81c-3.76,0-6.81,3.05-6.81,6.81
		C7.87,42.23,10.92,45.27,14.68,45.27z"/>
	<path class="st154" d="M14.65,45.21c3.74,0,6.77-3.03,6.77-6.77c0-3.74-3.03-6.77-6.77-6.77c-3.74,0-6.77,3.03-6.77,6.77
		C7.88,42.18,10.91,45.21,14.65,45.21z"/>
	<path class="st155" d="M14.63,45.15c3.72,0,6.73-3.02,6.73-6.74c0-3.72-3.02-6.73-6.73-6.73c-3.72,0-6.73,3.02-6.73,6.73
		C7.9,42.13,10.91,45.15,14.63,45.15z"/>
	<path class="st155" d="M14.61,45.09c3.7,0,6.7-3,6.7-6.7c0-3.7-3-6.7-6.7-6.7c-3.7,0-6.7,3-6.7,6.7
		C7.91,42.09,10.91,45.09,14.61,45.09z"/>
	<path class="st156" d="M14.58,45.03c3.68,0,6.66-2.98,6.66-6.66c0-3.68-2.98-6.66-6.66-6.66c-3.68,0-6.66,2.98-6.66,6.66
		C7.92,42.04,10.9,45.03,14.58,45.03z"/>
	<path class="st157" d="M14.56,44.96c3.66,0,6.62-2.96,6.62-6.62s-2.96-6.62-6.62-6.62c-3.66,0-6.62,2.96-6.62,6.62
		S10.9,44.96,14.56,44.96z"/>
	<path class="st158" d="M14.54,44.9c3.64,0,6.58-2.95,6.58-6.58c0-3.64-2.95-6.58-6.58-6.58c-3.64,0-6.59,2.95-6.59,6.58
		C7.95,41.95,10.9,44.9,14.54,44.9z"/>
	<path class="st159" d="M14.51,44.84c3.62,0,6.55-2.93,6.55-6.55c0-3.61-2.93-6.55-6.55-6.55c-3.62,0-6.55,2.93-6.55,6.55
		C7.97,41.91,10.9,44.84,14.51,44.84z"/>
	<path class="st159" d="M14.49,44.78c3.59,0,6.51-2.91,6.51-6.51c0-3.6-2.92-6.51-6.51-6.51c-3.6,0-6.51,2.91-6.51,6.51
		C7.98,41.86,10.89,44.78,14.49,44.78z"/>
	<path class="st160" d="M14.47,44.71c3.57,0,6.47-2.9,6.47-6.47s-2.9-6.47-6.47-6.47c-3.57,0-6.47,2.9-6.47,6.47
		S10.89,44.71,14.47,44.71z"/>
	<path class="st161" d="M14.44,44.65c3.55,0,6.43-2.88,6.43-6.43s-2.88-6.43-6.43-6.43c-3.55,0-6.43,2.88-6.43,6.43
		S10.89,44.65,14.44,44.65z"/>
	<path class="st162" d="M14.42,44.59c3.53,0,6.4-2.86,6.4-6.4c0-3.53-2.86-6.4-6.4-6.4c-3.53,0-6.39,2.86-6.39,6.4
		C8.02,41.72,10.89,44.59,14.42,44.59z"/>
	<path class="st163" d="M14.4,44.53c3.51,0,6.36-2.85,6.36-6.36c0-3.51-2.85-6.36-6.36-6.36c-3.51,0-6.36,2.85-6.36,6.36
		C8.04,41.68,10.88,44.53,14.4,44.53z"/>
	<path class="st164" d="M14.37,44.46c3.49,0,6.32-2.83,6.32-6.32c0-3.49-2.83-6.32-6.32-6.32c-3.49,0-6.32,2.83-6.32,6.32
		C8.05,41.63,10.88,44.46,14.37,44.46z"/>
	<path class="st165" d="M14.35,44.4c3.47,0,6.28-2.81,6.28-6.28s-2.81-6.28-6.28-6.28c-3.47,0-6.28,2.81-6.28,6.28
		S10.88,44.4,14.35,44.4z"/>
	<path class="st165" d="M14.33,44.34c3.45,0,6.25-2.8,6.25-6.24c0-3.45-2.8-6.25-6.25-6.25c-3.45,0-6.25,2.8-6.25,6.25
		C8.08,41.54,10.88,44.34,14.33,44.34z"/>
	<path class="st166" d="M14.3,44.28c3.43,0,6.21-2.78,6.21-6.21c0-3.43-2.78-6.21-6.21-6.21c-3.43,0-6.21,2.78-6.21,6.21
		C8.09,41.5,10.87,44.28,14.3,44.28z"/>
	<path class="st167" d="M14.28,44.22c3.41,0,6.17-2.76,6.17-6.17c0-3.41-2.76-6.17-6.17-6.17c-3.41,0-6.17,2.76-6.17,6.17
		C8.11,41.45,10.87,44.22,14.28,44.22z"/>
	<path class="st168" d="M14.26,44.15c3.39,0,6.13-2.75,6.13-6.13c0-3.39-2.75-6.13-6.13-6.13c-3.39,0-6.13,2.75-6.13,6.13
		C8.12,41.41,10.87,44.15,14.26,44.15z"/>
	<path class="st169" d="M14.23,44.09c3.37,0,6.09-2.73,6.09-6.1c0-3.37-2.73-6.1-6.09-6.1c-3.37,0-6.1,2.73-6.1,6.1
		C8.14,41.36,10.87,44.09,14.23,44.09z"/>
	<path class="st169" d="M14.21,44.03c3.35,0,6.06-2.71,6.06-6.06c0-3.35-2.71-6.06-6.06-6.06c-3.35,0-6.06,2.71-6.06,6.06
		C8.15,41.32,10.86,44.03,14.21,44.03z"/>
	<path class="st170" d="M14.19,43.97c3.33,0,6.02-2.7,6.02-6.02c0-3.32-2.69-6.02-6.02-6.02c-3.32,0-6.02,2.7-6.02,6.02
		C8.17,41.27,10.86,43.97,14.19,43.97z"/>
	
		<ellipse transform="matrix(0.3827 -0.9239 0.9239 0.3827 -26.2922 36.4933)" class="st171" cx="14.16" cy="37.92" rx="5.98" ry="5.98"/>
	<path class="st172" d="M14.14,43.84c3.28,0,5.94-2.66,5.94-5.94c0-3.28-2.66-5.95-5.94-5.95c-3.28,0-5.94,2.66-5.94,5.95
		C8.19,41.18,10.86,43.84,14.14,43.84z"/>
	<path class="st173" d="M14.12,43.78c3.26,0,5.91-2.65,5.91-5.91c0-3.26-2.65-5.91-5.91-5.91c-3.26,0-5.91,2.64-5.91,5.91
		C8.21,41.13,10.85,43.78,14.12,43.78z"/>
	<path class="st174" d="M14.09,43.72c3.24,0,5.87-2.63,5.87-5.87c0-3.24-2.63-5.87-5.87-5.87c-3.24,0-5.87,2.63-5.87,5.87
		C8.22,41.09,10.85,43.72,14.09,43.72z"/>
	<path class="st175" d="M14.07,43.65c3.22,0,5.83-2.61,5.83-5.83c0-3.22-2.61-5.83-5.83-5.83c-3.22,0-5.83,2.61-5.83,5.83
		C8.24,41.04,10.85,43.65,14.07,43.65z"/>
	<path class="st175" d="M14.05,43.59c3.2,0,5.79-2.59,5.79-5.79c0-3.2-2.59-5.79-5.79-5.79c-3.2,0-5.79,2.59-5.79,5.79
		C8.25,41,10.85,43.59,14.05,43.59z"/>
	<path class="st176" d="M14.02,43.53c3.18,0,5.76-2.58,5.76-5.76c0-3.18-2.58-5.76-5.76-5.76c-3.18,0-5.76,2.58-5.76,5.76
		C8.27,40.95,10.84,43.53,14.02,43.53z"/>
	<path class="st177" d="M14,43.47c3.16,0,5.72-2.56,5.72-5.72c0-3.16-2.56-5.72-5.72-5.72c-3.16,0-5.72,2.56-5.72,5.72
		C8.28,40.91,10.84,43.47,14,43.47z"/>
	<path class="st178" d="M13.98,43.4c3.14,0,5.68-2.54,5.68-5.68c0-3.14-2.54-5.68-5.68-5.68c-3.14,0-5.68,2.54-5.68,5.68
		C8.29,40.86,10.84,43.4,13.98,43.4z"/>
	<path class="st179" d="M13.95,43.34c3.12,0,5.64-2.53,5.64-5.64c0-3.12-2.53-5.64-5.64-5.64c-3.12,0-5.64,2.53-5.64,5.64
		C8.31,40.82,10.84,43.34,13.95,43.34z"/>
	<path class="st179" d="M13.93,43.28c3.1,0,5.61-2.51,5.61-5.61c0-3.1-2.51-5.61-5.61-5.61c-3.1,0-5.61,2.51-5.61,5.61
		C8.32,40.77,10.83,43.28,13.93,43.28z"/>
	<path class="st180" d="M13.91,43.22c3.07,0,5.57-2.49,5.57-5.57c0-3.08-2.49-5.57-5.57-5.57c-3.08,0-5.57,2.49-5.57,5.57
		C8.34,40.72,10.83,43.22,13.91,43.22z"/>
	<path class="st181" d="M13.88,43.16c3.05,0,5.53-2.48,5.53-5.53c0-3.05-2.48-5.53-5.53-5.53c-3.05,0-5.53,2.48-5.53,5.53
		C8.35,40.68,10.83,43.16,13.88,43.16z"/>
	<path class="st182" d="M13.86,43.09c3.03,0,5.49-2.46,5.49-5.49c0-3.03-2.46-5.49-5.49-5.49c-3.03,0-5.49,2.46-5.49,5.49
		C8.37,40.63,10.82,43.09,13.86,43.09z"/>
	<path class="st183" d="M13.83,43.03c3.01,0,5.46-2.44,5.46-5.45c0-3.01-2.44-5.46-5.46-5.46c-3.01,0-5.45,2.44-5.45,5.46
		C8.38,40.59,10.82,43.03,13.83,43.03z"/>
	<path class="st183" d="M13.81,42.97c2.99,0,5.42-2.43,5.42-5.42s-2.42-5.42-5.42-5.42c-2.99,0-5.42,2.43-5.42,5.42
		S10.82,42.97,13.81,42.97z"/>
	<path class="st184" d="M13.79,42.91c2.97,0,5.38-2.41,5.38-5.38s-2.41-5.38-5.38-5.38c-2.97,0-5.38,2.41-5.38,5.38
		S10.82,42.91,13.79,42.91z"/>
	<path class="st184" d="M13.77,42.84c2.95,0,5.34-2.39,5.34-5.34c0-2.95-2.39-5.34-5.34-5.34c-2.95,0-5.34,2.39-5.34,5.34
		C8.42,40.45,10.81,42.84,13.77,42.84z"/>
	<path class="st185" d="M13.74,42.78c2.93,0,5.3-2.38,5.3-5.31c0-2.93-2.37-5.3-5.3-5.3c-2.93,0-5.3,2.37-5.3,5.3
		C8.44,40.41,10.81,42.78,13.74,42.78z"/>
	<path class="st186" d="M13.72,42.72c2.91,0,5.27-2.36,5.27-5.27c0-2.91-2.36-5.27-5.27-5.27c-2.91,0-5.27,2.36-5.27,5.27
		C8.45,40.36,10.81,42.72,13.72,42.72z"/>
	<path class="st187" d="M13.69,42.66c2.89,0,5.23-2.34,5.23-5.23c0-2.89-2.34-5.23-5.23-5.23c-2.89,0-5.23,2.34-5.23,5.23
		C8.47,40.32,10.81,42.66,13.69,42.66z"/>
	<path class="st188" d="M13.67,42.59c2.87,0,5.19-2.33,5.19-5.19c0-2.87-2.32-5.19-5.19-5.19c-2.87,0-5.19,2.32-5.19,5.19
		C8.48,40.27,10.8,42.59,13.67,42.59z"/>
	<path class="st188" d="M13.65,42.53c2.85,0,5.15-2.31,5.15-5.16c0-2.85-2.31-5.15-5.15-5.15c-2.85,0-5.15,2.31-5.15,5.15
		C8.49,40.23,10.8,42.53,13.65,42.53z"/>
	<path class="st189" d="M13.62,42.47c2.83,0,5.12-2.29,5.12-5.12c0-2.83-2.29-5.12-5.12-5.12c-2.83,0-5.12,2.29-5.12,5.12
		C8.51,40.18,10.8,42.47,13.62,42.47z"/>
	<path class="st190" d="M13.6,42.41c2.81,0,5.08-2.27,5.08-5.08c0-2.8-2.27-5.08-5.08-5.08c-2.8,0-5.08,2.27-5.08,5.08
		C8.52,40.13,10.8,42.41,13.6,42.41z"/>
	<path class="st191" d="M13.58,42.35c2.78,0,5.04-2.26,5.04-5.04c0-2.78-2.26-5.04-5.04-5.04c-2.78,0-5.04,2.26-5.04,5.04
		C8.54,40.09,10.79,42.35,13.58,42.35z"/>
	<path class="st192" d="M13.56,42.28c2.76,0,5-2.24,5-5c0-2.76-2.24-5-5-5c-2.76,0-5,2.24-5,5C8.55,40.04,10.79,42.28,13.56,42.28z"
		/>
	<path class="st192" d="M13.53,42.22c2.74,0,4.97-2.22,4.97-4.97c0-2.74-2.22-4.97-4.97-4.97c-2.74,0-4.97,2.22-4.97,4.97
		C8.57,40,10.79,42.22,13.53,42.22z"/>
	<path class="st193" d="M13.51,42.16c2.72,0,4.93-2.21,4.93-4.93c0-2.72-2.21-4.93-4.93-4.93c-2.72,0-4.93,2.21-4.93,4.93
		C8.58,39.95,10.79,42.16,13.51,42.16z"/>
	<path class="st193" d="M13.49,42.1c2.7,0,4.89-2.19,4.89-4.89c0-2.7-2.19-4.89-4.89-4.89c-2.7,0-4.89,2.19-4.89,4.89
		C8.59,39.91,10.78,42.1,13.49,42.1z"/>
	<path class="st194" d="M13.46,42.03c2.68,0,4.85-2.17,4.85-4.85c0-2.68-2.17-4.85-4.85-4.85c-2.68,0-4.85,2.17-4.85,4.85
		C8.61,39.86,10.78,42.03,13.46,42.03z"/>
	<path class="st195" d="M13.44,41.97c2.66,0,4.82-2.16,4.82-4.82c0-2.66-2.16-4.82-4.82-4.82c-2.66,0-4.82,2.15-4.82,4.82
		C8.62,39.82,10.78,41.97,13.44,41.97z"/>
	<path class="st196" d="M13.41,41.91c2.64,0,4.78-2.14,4.78-4.78c0-2.64-2.14-4.78-4.78-4.78c-2.64,0-4.78,2.14-4.78,4.78
		C8.64,39.77,10.78,41.91,13.41,41.91z"/>
	<path class="st197" d="M13.39,41.85c2.62,0,4.74-2.12,4.74-4.74c0-2.62-2.12-4.74-4.74-4.74c-2.62,0-4.74,2.12-4.74,4.74
		C8.65,39.72,10.77,41.85,13.39,41.85z"/>
	<path class="st197" d="M13.37,41.78c2.6,0,4.7-2.11,4.7-4.7c0-2.6-2.1-4.7-4.7-4.7c-2.6,0-4.7,2.11-4.7,4.7
		C8.66,39.68,10.77,41.78,13.37,41.78z"/>
	<path class="st198" d="M13.35,41.72c2.58,0,4.67-2.09,4.67-4.67c0-2.58-2.09-4.67-4.67-4.67c-2.58,0-4.67,2.09-4.67,4.67
		C8.68,39.63,10.77,41.72,13.35,41.72z"/>
	<path class="st199" d="M13.32,41.66c2.56,0,4.63-2.07,4.63-4.63s-2.07-4.63-4.63-4.63c-2.56,0-4.63,2.07-4.63,4.63
		S10.77,41.66,13.32,41.66z"/>
	<path class="st200" d="M13.3,41.6c2.54,0,4.59-2.06,4.59-4.59c0-2.53-2.06-4.59-4.59-4.59c-2.53,0-4.59,2.06-4.59,4.59
		C8.71,39.54,10.76,41.6,13.3,41.6z"/>
	<path class="st201" d="M13.27,41.54c2.51,0,4.55-2.04,4.55-4.55c0-2.51-2.04-4.55-4.55-4.55c-2.51,0-4.55,2.04-4.55,4.55
		C8.72,39.5,10.76,41.54,13.27,41.54z"/>
	<path class="st201" d="M13.25,41.47c2.5,0,4.52-2.02,4.52-4.52c0-2.49-2.02-4.51-4.52-4.51c-2.49,0-4.51,2.02-4.51,4.51
		C8.74,39.45,10.76,41.47,13.25,41.47z"/>
	<path class="st202" d="M13.23,41.41c2.47,0,4.48-2,4.48-4.48c0-2.47-2-4.48-4.48-4.48c-2.47,0-4.48,2-4.48,4.48
		C8.75,39.41,10.76,41.41,13.23,41.41z"/>
	<path class="st202" d="M13.21,41.35c2.45,0,4.44-1.99,4.44-4.44c0-2.45-1.99-4.44-4.44-4.44c-2.45,0-4.44,1.99-4.44,4.44
		C8.76,39.36,10.75,41.35,13.21,41.35z"/>
	<path class="st203" d="M13.18,41.29c2.43,0,4.4-1.97,4.4-4.4c0-2.43-1.97-4.4-4.4-4.4c-2.43,0-4.4,1.97-4.4,4.4
		C8.78,39.31,10.75,41.29,13.18,41.29z"/>
	<path class="st204" d="M13.16,41.22c2.41,0,4.37-1.95,4.37-4.36c0-2.41-1.95-4.36-4.37-4.36c-2.41,0-4.36,1.95-4.36,4.36
		C8.79,39.27,10.75,41.22,13.16,41.22z"/>
	<path class="st205" d="M13.13,41.16c2.39,0,4.33-1.94,4.33-4.33c0-2.39-1.94-4.33-4.33-4.33c-2.39,0-4.33,1.94-4.33,4.33
		C8.81,39.22,10.74,41.16,13.13,41.16z"/>
	<path class="st206" d="M13.11,41.1c2.37,0,4.29-1.92,4.29-4.29c0-2.37-1.92-4.29-4.29-4.29c-2.37,0-4.29,1.92-4.29,4.29
		C8.82,39.18,10.74,41.1,13.11,41.1z"/>
	<path class="st206" d="M13.09,41.04c2.35,0,4.25-1.9,4.25-4.25c0-2.35-1.9-4.25-4.25-4.25c-2.35,0-4.25,1.9-4.25,4.25
		C8.84,39.13,10.74,41.04,13.09,41.04z"/>
	<path class="st207" d="M13.07,40.97c2.33,0,4.21-1.89,4.21-4.21c0-2.33-1.89-4.21-4.21-4.21c-2.33,0-4.21,1.89-4.21,4.21
		C8.85,39.09,10.74,40.97,13.07,40.97z"/>
	<path class="st208" d="M13.04,40.91c2.31,0,4.18-1.87,4.18-4.18c0-2.31-1.87-4.18-4.18-4.18c-2.31,0-4.18,1.87-4.18,4.18
		C8.86,39.04,10.73,40.91,13.04,40.91z"/>
	<path class="st209" d="M13.02,40.85c2.29,0,4.14-1.85,4.14-4.14c0-2.29-1.85-4.14-4.14-4.14c-2.29,0-4.14,1.85-4.14,4.14
		C8.88,39,10.73,40.85,13.02,40.85z"/>
	<path class="st210" d="M12.99,40.79c2.27,0,4.1-1.84,4.1-4.1c0-2.26-1.84-4.1-4.1-4.1c-2.26,0-4.1,1.84-4.1,4.1
		C8.89,38.95,10.73,40.79,12.99,40.79z"/>
	<path class="st210" d="M12.97,40.72c2.24,0,4.06-1.82,4.06-4.06c0-2.25-1.82-4.06-4.06-4.06c-2.24,0-4.06,1.82-4.06,4.06
		C8.91,38.91,10.73,40.72,12.97,40.72z"/>
	<path class="st211" d="M12.95,40.66c2.22,0,4.03-1.8,4.03-4.03c0-2.22-1.8-4.03-4.03-4.03c-2.22,0-4.03,1.8-4.03,4.03
		C8.92,38.86,10.72,40.66,12.95,40.66z"/>
	<path class="st211" d="M12.92,40.6c2.2,0,3.99-1.79,3.99-3.99c0-2.2-1.79-3.99-3.99-3.99s-3.99,1.78-3.99,3.99
		C8.94,38.81,10.72,40.6,12.92,40.6z"/>
	<path class="st212" d="M12.9,40.54c2.18,0,3.95-1.77,3.95-3.95c0-2.18-1.77-3.95-3.95-3.95c-2.18,0-3.95,1.77-3.95,3.95
		C8.95,38.77,10.72,40.54,12.9,40.54z"/>
	<path class="st213" d="M12.88,40.48c2.16,0,3.91-1.75,3.91-3.91c0-2.16-1.75-3.91-3.91-3.91s-3.91,1.75-3.91,3.91
		C8.96,38.72,10.72,40.48,12.88,40.48z"/>
	<path class="st213" d="M12.85,40.41c2.14,0,3.88-1.73,3.88-3.87c0-2.14-1.73-3.88-3.88-3.88c-2.14,0-3.88,1.74-3.88,3.88
		C8.98,38.68,10.71,40.41,12.85,40.41z"/>
	<path class="st214" d="M12.83,40.35c2.12,0,3.84-1.72,3.84-3.84c0-2.12-1.72-3.84-3.84-3.84c-2.12,0-3.84,1.72-3.84,3.84
		C8.99,38.63,10.71,40.35,12.83,40.35z"/>
	<path class="st214" d="M12.81,40.29c2.1,0,3.8-1.7,3.8-3.8c0-2.1-1.7-3.8-3.8-3.8c-2.1,0-3.8,1.7-3.8,3.8
		C9.01,38.59,10.71,40.29,12.81,40.29z"/>
	<path class="st215" d="M12.78,40.23c2.08,0,3.76-1.69,3.76-3.76c0-2.08-1.69-3.76-3.76-3.76c-2.08,0-3.76,1.68-3.76,3.76
		C9.02,38.54,10.71,40.23,12.78,40.23z"/>
	<path class="st216" d="M12.76,40.16c2.06,0,3.72-1.67,3.72-3.72c0-2.06-1.67-3.72-3.72-3.72c-2.06,0-3.72,1.67-3.72,3.72
		C9.04,38.5,10.7,40.16,12.76,40.16z"/>
	<path class="st217" d="M12.74,40.1c2.04,0,3.69-1.65,3.69-3.69c0-2.04-1.65-3.69-3.69-3.69c-2.04,0-3.69,1.65-3.69,3.69
		C9.05,38.45,10.7,40.1,12.74,40.1z"/>
	<path class="st218" d="M12.71,40.04c2.02,0,3.65-1.63,3.65-3.65c0-2.02-1.63-3.65-3.65-3.65c-2.01,0-3.65,1.63-3.65,3.65
		C9.06,38.4,10.7,40.04,12.71,40.04z"/>
	<path class="st218" d="M12.69,39.98c2,0,3.61-1.62,3.61-3.61c0-2-1.62-3.61-3.61-3.61c-1.99,0-3.61,1.62-3.61,3.61
		C9.08,38.36,10.7,39.98,12.69,39.98z"/>
	<path class="st219" d="M12.67,39.91c1.97,0,3.57-1.6,3.57-3.57c0-1.97-1.6-3.57-3.57-3.57c-1.97,0-3.57,1.6-3.57,3.57
		C9.09,38.31,10.69,39.91,12.67,39.91z"/>
	<path class="st219" d="M12.64,39.85c1.95,0,3.54-1.58,3.54-3.54c0-1.95-1.58-3.54-3.54-3.54c-1.95,0-3.54,1.58-3.54,3.54
		C9.11,38.27,10.69,39.85,12.64,39.85z"/>
	<path class="st220" d="M12.62,39.79c1.93,0,3.5-1.57,3.5-3.5c0-1.93-1.57-3.5-3.5-3.5c-1.93,0-3.5,1.57-3.5,3.5
		C9.12,38.22,10.69,39.79,12.62,39.79z"/>
	<path class="st221" d="M12.6,39.73c1.91,0,3.46-1.55,3.46-3.46c0-1.91-1.55-3.46-3.46-3.46c-1.91,0-3.46,1.55-3.46,3.46
		C9.14,38.18,10.68,39.73,12.6,39.73z"/>
	<path class="st221" d="M12.57,39.67c1.89,0,3.42-1.53,3.42-3.42c0-1.89-1.53-3.42-3.42-3.42c-1.89,0-3.42,1.53-3.42,3.42
		C9.15,38.13,10.68,39.67,12.57,39.67z"/>
	<path class="st222" d="M12.55,39.6c1.87,0,3.39-1.52,3.39-3.39c0-1.87-1.52-3.39-3.39-3.39c-1.87,0-3.39,1.52-3.39,3.39
		C9.16,38.09,10.68,39.6,12.55,39.6z"/>
	<path class="st222" d="M12.53,39.54c1.85,0,3.35-1.5,3.35-3.35c0-1.85-1.5-3.35-3.35-3.35c-1.85,0-3.35,1.5-3.35,3.35
		C9.18,38.04,10.68,39.54,12.53,39.54z"/>
	<path class="st223" d="M12.5,39.48c1.83,0,3.31-1.48,3.31-3.31s-1.48-3.31-3.31-3.31c-1.83,0-3.31,1.48-3.31,3.31
		S10.68,39.48,12.5,39.48z"/>
	<path class="st224" d="M12.48,39.42c1.81,0,3.27-1.47,3.27-3.27c0-1.81-1.47-3.27-3.27-3.27c-1.81,0-3.27,1.47-3.27,3.27
		C9.21,37.95,10.67,39.42,12.48,39.42z"/>
	<path class="st225" d="M12.46,39.35c1.79,0,3.24-1.45,3.24-3.24c0-1.79-1.45-3.24-3.24-3.24c-1.79,0-3.24,1.45-3.24,3.24
		C9.22,37.91,10.67,39.35,12.46,39.35z"/>
	<path class="st226" d="M12.43,39.29c1.77,0,3.2-1.43,3.2-3.2c0-1.77-1.43-3.2-3.2-3.2c-1.77,0-3.2,1.43-3.2,3.2
		C9.24,37.86,10.67,39.29,12.43,39.29z"/>
	<path class="st227" d="M18.21,29.94c0,0-7.19,1.97-7.19,12.21"/>
	<path class="st227" d="M18.24,29.96c0,0,7.34,1.95,7.34,12.18"/>
	<path class="st227" d="M18.2,54.66c0,0,7.38-1.99,7.38-12.51"/>
	<path class="st227" d="M18.2,54.66c0,0-7.19-1.88-7.19-12.51"/>
	<rect x="5.7" y="42.15" class="st228" width="25.24" height="0.29"/>
	<polygon class="st228" points="7.32,36.1 29.16,36.1 29.16,35.81 7.51,35.81 	"/>
	<polygon class="st228" points="7.43,48.64 29.16,48.64 29.16,48.35 7.26,48.35 	"/>
	<line class="st227" x1="18.21" y1="29.7" x2="18.21" y2="54.86"/>
	<polygon class="st0" points="18.47,34.36 18.47,37.39 67.06,37.39 69.35,34.36 	"/>
	<polygon class="st0" points="18.46,40.7 18.46,43.73 62.26,43.73 64.55,40.7 	"/>
	<polygon class="st0" points="18.47,47.05 18.47,50.08 57.46,50.08 59.76,47.05 	"/>
	<rect x="67.81" y="47.21" class="st229" width="20.14" height="20.14"/>
	<path class="st228" d="M72.89,57.88c-0.3-0.07-3.88,0.2-2.56,1.16c1.83,1.33,0.41,0.08,2.82,2.48c2.41,2.41,2.77,4.1,3.08,4.21
		c0.19,0.07,1.51-2.04,1.54-2.1C83.15,53.07,90.21,45.92,90,46.06c-4.13,2.73-5.51,4.64-7.61,7.19c-2.37,2.89-6.14,8.09-6.16,8.04
		C75.09,59.04,72.89,57.88,72.89,57.88z"/>
	<path class="st230" d="M18.13,78.37h6.46v1.05h-5.15v2.96h4.52v1.04h-4.52v4.27h-1.31V78.37z"/>
	<path class="st230" d="M29.15,80.06c2.5,0,3.77,1.88,3.77,3.91c0,2.03-1.27,3.91-3.77,3.91c-2.5,0-3.77-1.88-3.77-3.91
		C25.38,81.94,26.65,80.06,29.15,80.06z M29.15,87.04c1.92,0,2.72-1.57,2.72-3.07c0-1.5-0.8-3.07-2.72-3.07
		c-1.92,0-2.72,1.57-2.72,3.07C26.43,85.47,27.23,87.04,29.15,87.04z"/>
	<path class="st230" d="M40.48,85c0,1.88-1.14,2.87-3.1,2.87c-2.03,0-3.23-0.89-3.23-2.87v-4.76h1.05V85c0,1.32,0.79,2.04,2.18,2.04
		c1.32,0,2.05-0.72,2.05-2.04v-4.76h1.05V85z"/>
	<path class="st230" d="M42.15,80.24h1.11l4.15,6.05h0.02v-6.05h0.99v7.46h-1.15l-4.11-5.99h-0.02v5.99h-0.99V80.24z"/>
	<path class="st230" d="M50.12,80.24h2.7c2.43,0,3.78,1.15,3.78,3.55c0,2.5-1.16,3.91-3.78,3.91h-2.7V80.24z M51.17,86.86h1.74
		c0.72,0,2.65-0.19,2.65-2.94c0-1.78-0.69-2.85-2.62-2.85h-1.76V86.86z"/>
	<path class="st230" d="M60.02,80.24h1.16l3.08,7.46h-1.16l-0.86-2.25H58.9l-0.88,2.25h-1.08L60.02,80.24z M59.24,84.61h2.67
		l-1.31-3.48h-0.02L59.24,84.61z"/>
	<path class="st230" d="M66.81,81.07h-2.62v-0.84h6.29v0.84h-2.62v6.62h-1.05V81.07z"/>
	<path class="st230" d="M71.4,80.24h1.05v7.46H71.4V80.24z"/>
	<path class="st230" d="M77.54,80.06c2.5,0,3.77,1.88,3.77,3.91c0,2.03-1.27,3.91-3.77,3.91c-2.51,0-3.77-1.88-3.77-3.91
		C73.76,81.94,75.03,80.06,77.54,80.06z M77.54,87.04c1.92,0,2.72-1.57,2.72-3.07c0-1.5-0.8-3.07-2.72-3.07
		c-1.92,0-2.72,1.57-2.72,3.07C74.81,85.47,75.62,87.04,77.54,87.04z"/>
	<path class="st230" d="M82.57,80.24h1.11l4.15,6.05h0.02v-6.05h0.99v7.46H87.7l-4.11-5.99h-0.02v5.99h-0.99V80.24z"/>
</g>
<g id="Ebene_4">
	<path class="st0" d="M95.97,8.96h-0.49V6.68h0.85c0.59,0,0.94,0.17,0.94,0.69c0,0.42-0.25,0.57-0.55,0.59l0.58,1h-0.58L96.2,8
		h-0.23V8.96z M96.4,7.61c0.22,0,0.35-0.04,0.35-0.3c0-0.24-0.25-0.25-0.44-0.25h-0.34v0.55H96.4z M96.32,9.94
		c-1.13,0-2.13-0.78-2.13-2.12c0-1.34,1-2.12,2.13-2.12c1.12,0,2.12,0.78,2.12,2.12C98.45,9.16,97.45,9.94,96.32,9.94z M96.32,6.19
		c-0.84,0-1.52,0.65-1.52,1.63c0,0.98,0.68,1.63,1.52,1.63v0.01c0.82,0,1.51-0.66,1.51-1.63C97.84,6.84,97.14,6.19,96.32,6.19z"/>
</g>
</svg>
