<?xml version="1.0" encoding="UTF-8" standalone="no"?>
<svg
   xmlns:dc="http://purl.org/dc/elements/1.1/"
   xmlns:cc="http://creativecommons.org/ns#"
   xmlns:rdf="http://www.w3.org/1999/02/22-rdf-syntax-ns#"
   xmlns:svg="http://www.w3.org/2000/svg"
   xmlns="http://www.w3.org/2000/svg"
   xmlns:sodipodi="http://sodipodi.sourceforge.net/DTD/sodipodi-0.dtd"
   xmlns:inkscape="http://www.inkscape.org/namespaces/inkscape"
   version="1.1"
   x="0px"
   y="0px"
   width="106.26px"
   height="93.543px"
   viewBox="0 0 106.26 93.543"
   enable-background="new 0 0 106.26 93.543"
   xml:space="preserve"
   id="svg2"
   inkscape:version="0.48.4 r9939"
   sodipodi:docname="a100038a.svg"><title
   id="title3769">Ex Explosionsschutzkennzeichen</title><metadata
   id="metadata20"><rdf:RDF><cc:Work
       rdf:about=""><dc:format>image/svg+xml</dc:format><dc:type
         rdf:resource="http://purl.org/dc/dcmitype/StillImage" /><dc:title>Ex Explosionsschutzkennzeichen</dc:title></cc:Work></rdf:RDF></metadata><defs
   id="defs18" /><sodipodi:namedview
   pagecolor="#ffffff"
   bordercolor="#666666"
   borderopacity="1"
   objecttolerance="10"
   gridtolerance="10"
   guidetolerance="10"
   inkscape:pageopacity="0"
   inkscape:pageshadow="2"
   inkscape:window-width="1920"
   inkscape:window-height="1018"
   id="namedview16"
   showgrid="false"
   inkscape:zoom="7.1358499"
   inkscape:cx="63.09106"
   inkscape:cy="39.75496"
   inkscape:window-x="-8"
   inkscape:window-y="-8"
   inkscape:window-maximized="1"
   inkscape:current-layer="svg2" />

<polygon
   id="polygon8"
   points="5.669,46.772 29.4,87.874 76.86,87.874 100.591,46.772 76.86,5.669 29.4,5.669 "
   style="fill:#000000;fill-opacity:1;stroke:none" /><polygon
   style="fill:#ffff00;stroke:none;fill-opacity:1"
   id="polygon10"
   points="11.365,46.772 32.248,82.941 74.013,82.941 94.896,46.772 74.013,10.602 32.248,10.602 " /><path
   inkscape:connector-curvature="0"
   id="path12"
   d="m 44.933,29.371 c -1.546,-1.546 -3.682,-2.502 -6.041,-2.502 -4.718,0 -8.543,3.825 -8.543,8.543 0,4.718 3.825,8.542 8.543,8.542 h 5.695 v 1.193 3.31 1.192 h -5.695 c -4.718,0 -8.543,3.825 -8.543,8.543 0,4.719 3.825,8.543 8.543,8.543 2.359,0 4.495,-0.956 6.041,-2.502 l 4.027,4.027 c -2.577,2.576 -6.136,4.17 -10.068,4.17 -7.864,0 -14.238,-6.375 -14.238,-14.238 0,-4.665 2.254,-8.794 5.721,-11.391 -3.467,-2.597 -5.721,-6.725 -5.721,-11.39 0,-7.864 6.375,-14.238 14.238,-14.238 3.932,0 7.491,1.593 10.068,4.17 l -4.027,4.028 z"
   style="fill:#000000;fill-opacity:1;stroke:none" /><path
   inkscape:connector-curvature="0"
   id="path14"
   d="m 58.487,63.431 c -0.064,0.146 -0.152,0.276 -0.229,0.416 -0.95,1.709 -2.835,2.889 -5.033,2.889 v 5.695 c 4.752,0 8.82,-2.729 10.528,-6.606 l 0.399,-0.87 0.25,0.547 c 0.123,0.308 0.261,0.608 0.413,0.901 1.845,3.564 5.731,6.028 10.241,6.028 v -5.695 c -2.197,0 -4.083,-1.18 -5.032,-2.89 -0.027,-0.049 -0.227,-0.436 -0.286,-0.586 l -2.486,-5.073 2.501,-5.104 c 0.049,-0.12 0.235,-0.479 0.271,-0.543 0.949,-1.709 2.835,-2.89 5.032,-2.89 v -5.695 c -4.552,0 -8.469,2.51 -10.293,6.129 -0.118,0.235 -0.612,1.336 -0.612,1.336 l -0.434,-0.947 c -1.73,-3.831 -5.776,-6.518 -10.493,-6.518 v 5.695 c 2.198,0 4.084,1.181 5.033,2.89 0.069,0.125 0.156,0.24 0.215,0.371 l 2.579,5.276 -2.564,5.244"
   style="fill:#000000;fill-opacity:1;stroke:none" />
</svg>