<?xml version="1.0" encoding="UTF-8" standalone="no"?>
<svg
   xmlns:dc="http://purl.org/dc/elements/1.1/"
   xmlns:cc="http://creativecommons.org/ns#"
   xmlns:rdf="http://www.w3.org/1999/02/22-rdf-syntax-ns#"
   xmlns:svg="http://www.w3.org/2000/svg"
   xmlns="http://www.w3.org/2000/svg"
   xml:space="preserve"
   enable-background="new 0 0 208.693 93.543"
   viewBox="0 0 208.693 93.543"
   y="0px"
   x="0px"
   id="Drawing"
   version="1.1"><title
   id="title836">PROFIBUS</title><metadata
   id="metadata29"><rdf:RDF><cc:Work
       rdf:about=""><dc:format>image/svg+xml</dc:format><dc:type
         rdf:resource="http://purl.org/dc/dcmitype/StillImage" /><dc:title>PROFIBUS</dc:title></cc:Work></rdf:RDF></metadata><defs
   id="defs27" />
<path
   style="fill:#0064ad;fill-opacity:1;stroke:none"
   id="path2"
   d="M194.944,5.669c-4.463,0-8.081,3.618-8.081,8.08c0,4.463,3.618,8.081,8.081,8.081  c4.462,0,8.08-3.618,8.08-8.081C203.023,9.287,199.405,5.669,194.944,5.669z M194.944,20.151c-3.535,0-6.401-2.866-6.401-6.4  c0-3.535,2.866-6.401,6.401-6.401c3.534,0,6.4,2.866,6.4,6.401C201.344,17.284,198.478,20.151,194.944,20.151z"
   fill="#1A64AA" />
<path
   style="fill:#0064ad;fill-opacity:1;stroke:none"
   id="path4"
   d="M169.102,47.816l0.946-4.451h6.676c0,0,4.451,0,5.397-4.451l3.784-17.804c0,0,0.946-4.451-3.505-4.451  h-17.804c0,0-4.451,0-5.397,4.451l-3.784,17.804c0,0-0.946,4.451,3.505,4.451h6.676l-0.946,4.451h-26.705l0.946-4.451h6.676  c0,0,4.451,0,5.397-4.451l3.784-17.804c0,0,0.946-4.451-3.505-4.451h-17.804c0,0-4.451,0-5.397,4.451l-3.784,17.804  c0,0-0.946,4.451,3.505,4.451h6.676l-0.946,4.451H106.79l0.946-4.451h6.676c0,0,4.451,0,5.397-4.451l3.784-17.804  c0,0,0.946-4.451-3.505-4.451h-17.803c0,0-4.451,0-5.397,4.451l-3.784,17.804c0,0-0.946,4.451,3.505,4.451h6.676l-0.946,4.451  H75.634l0.946-4.451h6.676c0,0,4.451,0,5.397-4.451l3.784-17.804c0,0,0.946-4.451-3.505-4.451H71.129c0,0-4.451,0-5.397,4.451  l-3.784,17.804c0,0-0.946,4.451,3.505,4.451h6.676l-0.946,4.451H44.478l0.946-4.451H52.1c0,0,4.451,0,5.397-4.451l3.784-17.804  c0,0,0.946-4.451-3.505-4.451H39.973c0,0-4.451,0-5.397,4.451l-3.784,17.804c0,0-0.946,4.451,3.505,4.451h6.676l-0.946,4.451H13.322  l-1.892,8.902h11.127l-0.946,4.451h-6.676c0,0-4.451,0-5.397,4.451L5.753,83.423c0,0-0.946,4.451,3.505,4.451h17.804  c0,0,4.451,0,5.397-4.451l3.784-17.803c0,0,0.946-4.451-3.505-4.451h-6.676l0.946-4.451h26.705l-0.946,4.451h-6.676  c0,0-4.451,0-5.397,4.451L36.91,83.423c0,0-0.946,4.451,3.505,4.451h17.804c0,0,4.451,0,5.397-4.451l3.784-17.803  c0,0,0.946-4.451-3.505-4.451h-6.676l0.946-4.451h26.705l-0.946,4.451h-6.676c0,0-4.451,0-5.397,4.451l-3.784,17.803  c0,0-0.946,4.451,3.505,4.451h17.804c0,0,4.451,0,5.397-4.451l3.784-17.803c0,0,0.946-4.451-3.505-4.451h-6.676l0.946-4.451h26.705  l-0.946,4.451h-6.676c0,0-4.451,0-5.397,4.451l-3.784,17.803c0,0-0.946,4.451,3.505,4.451h17.803c0,0,4.451,0,5.397-4.451  l3.784-17.803c0,0,0.946-4.451-3.505-4.451h-6.676l0.946-4.451h26.705l-0.946,4.451h-6.676c0,0-4.451,0-5.397,4.451l-3.784,17.803  c0,0-0.946,4.451,3.505,4.451h17.803c0,0,4.451,0,5.397-4.451l3.784-17.803c0,0,0.946-4.451-3.505-4.451h-6.676l0.946-4.451h26.705  l1.892-8.902H169.102z"
   fill="#1A64AA" />
<path
   style="stroke:none"
   id="path6"
   d="M44.635,23.641c0.36-0.079,1.01-0.158,1.907-0.158c2.242,0,3.39,1.055,2.969,3.034  c-0.443,2.084-2.172,3.271-4.599,3.271c-0.659,0-1.181-0.026-1.555-0.132L44.635,23.641z M38.17,38.915h3.218l1.424-6.7  c0.405,0.079,0.954,0.106,1.56,0.106c2.295,0,4.455-0.607,6.022-1.899c1.204-0.95,2.029-2.348,2.388-4.036  c0.353-1.662-0.035-3.06-0.906-3.93c-0.932-0.95-2.567-1.451-4.941-1.451c-2.189,0-3.832,0.158-5.038,0.369L38.17,38.915z"
   fill="#FFFFFF" />
<path
   style="stroke:none"
   id="path8"
   d="M49.067,75.272h1.609c2.242,0,3.857,0.844,3.419,2.902c-0.465,2.189-2.48,2.981-4.564,2.981  c-0.739,0-1.293,0-1.698-0.079L49.067,75.272z M50.603,68.044c0.36-0.079,0.925-0.132,1.875-0.132c2.058,0,3.161,0.765,2.808,2.427  c-0.32,1.504-1.81,2.559-4.052,2.559h-1.662L50.603,68.044z M44.127,83.37c0.795,0.106,2.139,0.237,3.933,0.237  c3.245,0,5.446-0.554,6.948-1.662c1.208-0.844,2.158-2.084,2.494-3.667c0.521-2.453-0.879-3.93-2.651-4.405l0.011-0.053  c2.077-0.712,3.425-2.216,3.773-3.851c0.32-1.504-0.172-2.664-1.14-3.324c-1.034-0.844-2.45-1.134-4.85-1.134  c-1.82,0-3.727,0.158-4.8,0.369L44.127,83.37z"
   fill="#FFFFFF" />
<path
   style="stroke:none"
   id="path10"
   d="M75.48,23.615c0.333-0.079,1.01-0.158,2.038-0.158c2.11,0,3.291,0.897,2.876,2.849  c-0.376,1.767-1.994,2.928-4.184,2.928h-1.926L75.48,23.615z M69.009,38.915h3.218l1.553-7.307h1.635  c1.835,0.053,2.522,0.791,2.53,3.113c0.03,2.216,0.144,3.667,0.296,4.194h3.35c-0.224-0.686-0.261-2.743-0.344-4.959  c-0.084-1.715-0.585-2.954-1.751-3.429l0.017-0.079c1.791-0.607,3.678-2.163,4.166-4.458c0.32-1.504,0.029-2.743-0.773-3.561  c-0.974-1.002-2.625-1.424-5.184-1.424c-1.873,0-3.727,0.158-4.985,0.369L69.009,38.915z"
   fill="#FFFFFF" />
<path
   style="stroke:none"
   id="path12"
   d="M78.26,65.644l-2.164,10.182c-1.189,5.592,0.988,7.887,5.103,7.887c4.273,0,7.612-2.427,8.778-7.914  l2.159-10.156H88.89l-2.204,10.367c-0.74,3.482-2.48,5.091-4.828,5.091c-2.189,0-3.298-1.609-2.558-5.091l2.204-10.367H78.26z"
   fill="#FFFFFF" />
<path
   style="stroke:none"
   id="path14"
   d="M109.761,23.43c3.245,0,4.228,3.192,3.516,6.542c-0.791,3.719-3.18,6.647-6.319,6.647  c-3.113,0-4.316-2.902-3.548-6.516C104.189,26.437,106.543,23.43,109.761,23.43 M110.39,20.845c-5.012,0-9.26,3.851-10.42,9.312  c-1.11,5.223,1.242,9.048,6.254,9.048c4.906,0,9.244-3.403,10.511-9.364C117.811,24.775,115.587,20.845,110.39,20.845"
   fill="#FFFFFF" />
<path
   style="stroke:none"
   id="path16"
   d="M106.977,82.579c0.853,0.58,2.687,1.134,4.56,1.134c4.59,0,7.286-2.506,7.891-5.355  c0.544-2.559-0.629-4.115-3.469-5.276c-2.178-0.923-3.072-1.556-2.78-2.928c0.219-1.029,1.351-2.137,3.409-2.137  c1.662,0,2.795,0.501,3.355,0.844l1.346-2.611c-0.822-0.475-2.157-0.897-4.083-0.897c-3.851,0-6.749,2.216-7.366,5.117  c-0.544,2.559,0.998,4.115,3.702,5.17c2.095,0.818,2.823,1.609,2.537,2.954c-0.308,1.451-1.677,2.427-3.76,2.427  c-1.662,0-3.132-0.528-4.059-1.134L106.977,82.579z"
   fill="#FFFFFF" />
<polygon
   style="stroke:none"
   id="polygon18"
   points="132.482,38.915 136.266,21.111 146.542,21.111 145.975,23.779 138.948,23.779 137.904,28.692   144.455,28.692 143.888,31.36 137.337,31.36 135.731,38.915 "
   fill="#FFFFFF" />
<polygon
   style="stroke:none"
   id="polygon20"
   points="170.929,21.111 174.177,21.111 170.393,38.915 167.144,38.915 "
   fill="#FFFFFF" />
<path
   style="fill:#0064ad;fill-opacity:1;stroke:none"
   id="path22"
   d="M191.575,9.709c0.719-0.101,1.789-0.176,2.977-0.176c1.467,0,2.493,0.188,3.196,0.664  c0.586,0.401,0.909,0.99,0.909,1.766c0,1.078-0.895,1.816-1.745,2.08v0.037c0.69,0.238,1.071,0.802,1.319,1.578  c0.309,0.951,0.616,2.054,0.807,2.38h-2.288c-0.16-0.238-0.396-0.927-0.689-1.966c-0.264-1.053-0.689-1.34-1.598-1.354h-0.674v3.32  h-2.214V9.709z M193.79,13.342h0.879c1.114,0,1.774-0.476,1.774-1.216c0-0.777-0.615-1.164-1.641-1.178  c-0.543,0-0.85,0.038-1.012,0.063V13.342z"
   fill="#1A64AA" />
</svg>