<?xml version="1.0" encoding="UTF-8" standalone="no"?>
<svg
   xmlns:dc="http://purl.org/dc/elements/1.1/"
   xmlns:cc="http://creativecommons.org/ns#"
   xmlns:rdf="http://www.w3.org/1999/02/22-rdf-syntax-ns#"
   xmlns:svg="http://www.w3.org/2000/svg"
   xmlns="http://www.w3.org/2000/svg"
   xml:space="preserve"
   enable-background="new 0 0 210.345 93.543"
   viewBox="0 0 210.345 93.543"
   y="0px"
   x="0px"
   id="Drawing"
   version="1.1"><title
   id="title850">FieldConnex</title><metadata
   id="metadata43"><rdf:RDF><cc:Work
       rdf:about=""><dc:format>image/svg+xml</dc:format><dc:type
         rdf:resource="http://purl.org/dc/dcmitype/StillImage" /><dc:title>FieldConnex</dc:title></cc:Work></rdf:RDF></metadata><defs
   id="defs41" />
<polyline
   style="stroke:none;fill:#000000;fill-opacity:1"
   id="polyline2"
   points="189.071,34.474 183.765,34.474 193.157,49.031 198.464,49.031 189.071,34.474 " />
<polyline
   style="stroke:none"
   id="polyline4"
   points="13.467,25.916 27.495,25.916 26.172,29.935 17.379,29.935 15.844,34.654 24.678,34.654   23.371,38.628 14.502,38.628 10.935,49.006 5.669,49.006 13.467,25.916 "
   fill="#00A587" />
<path
   style="stroke:none"
   id="path6"
   d="M45.026,44.789l3.774,1.608c-1.053,0.924-2.368,1.656-3.946,2.186c-1.577,0.529-3.276,0.795-5.094,0.795  c-2.846,0-4.99-0.617-6.43-1.854c-1.44-1.231-1.996-2.871-1.666-4.914c0.381-2.345,1.727-4.327,4.04-5.943  c2.313-1.621,4.924-2.43,7.827-2.43c1.749,0,3.259,0.298,4.528,0.887c1.272,0.593,2.21,1.453,2.816,2.578  c0.606,1.128,0.802,2.356,0.588,3.684c-0.066,0.407-0.202,0.893-0.407,1.455H36.155c-0.113,0.993,0.184,1.785,0.894,2.38  c0.712,0.592,1.777,0.889,3.196,0.889C41.961,46.11,43.556,45.67,45.026,44.789L45.026,44.789z M46.922,40.286  c-0.2-0.898-0.66-1.578-1.386-2.046c-0.727-0.462-1.656-0.697-2.788-0.697c-1.122,0-2.175,0.24-3.157,0.718  c-0.982,0.477-1.778,1.152-2.388,2.025H46.922"
   fill="#00A587" />
<polyline
   style="stroke:none"
   id="polyline8"
   points="57.265,29.052 61.831,29.052 55.094,49 50.527,49 57.265,29.052 "
   fill="#00A587" />
<path
   style="stroke:none"
   id="path10"
   d="M78.283,29.052h4.605L76.114,49h-4.568l0.52-1.536c-1.109,0.71-2.116,1.209-3.023,1.492  c-0.908,0.282-1.898,0.422-2.97,0.422c-2.464,0-4.311-0.702-5.538-2.106c-1.228-1.405-1.691-3.036-1.39-4.898  c0.23-1.421,0.913-2.771,2.051-4.052c1.137-1.278,2.549-2.281,4.234-3.004c1.684-0.721,3.382-1.083,5.094-1.083  c1.148,0,2.176,0.208,3.08,0.618c0.904,0.413,1.608,1.015,2.112,1.802L78.283,29.052L78.283,29.052z M67.675,46.222  c1.119,0,2.127-0.195,3.021-0.58c0.897-0.388,1.693-0.994,2.391-1.821c0.699-0.824,1.118-1.67,1.258-2.535  c0.184-1.135-0.095-2.051-0.832-2.74c-0.738-0.693-1.802-1.041-3.193-1.041c-1.62,0-3.07,0.465-4.349,1.393  c-1.279,0.928-2.037,2.12-2.274,3.581c-0.182,1.124,0.098,2.028,0.845,2.715C65.285,45.879,66.33,46.222,67.675,46.222"
   fill="#00A587" />
<path
   style="stroke:none;fill:#000000;fill-opacity:1"
   id="path12"
   d="M117.106,34.237c1.656,0,3.113,0.298,4.371,0.887c1.256,0.593,2.177,1.431,2.756,2.514c0.579,1.083,0.76,2.3,0.54,3.654  c-0.365,2.246-1.706,4.153-4.031,5.726c-2.32,1.573-5.005,2.361-8.056,2.361c-2.651,0-4.663-0.62-6.04-1.862  c-1.377-1.24-1.903-2.86-1.58-4.855c0.391-2.424,1.785-4.434,4.179-6.029C111.641,35.037,114.262,34.237,117.106,34.237  L117.106,34.237z M116.225,37.582c-1.861,0-3.37,0.518-4.535,1.558c-1.16,1.039-1.837,2.163-2.033,3.377  c-0.177,1.085,0.089,1.955,0.794,2.611c0.705,0.654,1.735,0.982,3.085,0.982c1.918,0,3.457-0.5,4.625-1.5  c1.166-1.001,1.857-2.15,2.065-3.451c0.17-1.063-0.112-1.923-0.858-2.585C118.622,37.91,117.577,37.582,116.225,37.582" />
<path
   style="stroke:none;fill:#000000;fill-opacity:1"
   id="path14"
   d="M128.87,34.437h4.566l-0.568,1.648c1.95-1.23,3.87-1.848,5.756-1.848c1.612,0,2.871,0.397,3.771,1.187  c0.905,0.792,1.256,1.788,1.064,2.988c-0.096,0.578-0.329,1.425-0.705,2.546L140.04,49h-4.569l2.655-7.854  c0.269-0.81,0.436-1.416,0.499-1.821c0.093-0.583-0.047-1.033-0.425-1.348c-0.378-0.315-0.963-0.472-1.75-0.472  c-0.771,0-1.569,0.205-2.402,0.618c-0.836,0.41-1.517,0.98-2.046,1.705c-0.532,0.726-1.13,2.089-1.796,4.094L128.508,49h-4.566  L128.87,34.437" />
<path
   style="stroke:none;fill:#000000;fill-opacity:1"
   id="path16"
   d="M147.615,34.437h4.569l-0.568,1.648c1.95-1.23,3.867-1.848,5.756-1.848c1.613,0,2.869,0.397,3.771,1.187  c0.902,0.792,1.256,1.788,1.064,2.988c-0.096,0.578-0.329,1.425-0.708,2.546L158.784,49h-4.566l2.652-7.854  c0.269-0.81,0.433-1.416,0.502-1.821c0.093-0.583-0.049-1.033-0.425-1.348c-0.378-0.315-0.963-0.472-1.755-0.472  c-0.765,0-1.566,0.205-2.4,0.618c-0.834,0.41-1.517,0.98-2.043,1.705c-0.532,0.726-1.13,2.089-1.796,4.094l-1.7,5.079h-4.566  L147.615,34.437" />
<path
   style="stroke:none;fill:#000000;fill-opacity:1"
   id="path18"
   d="M176.015,44.789l3.774,1.608c-1.056,0.924-2.372,1.656-3.946,2.186c-1.58,0.529-3.277,0.795-5.095,0.795  c-2.844,0-4.988-0.617-6.428-1.854c-1.44-1.231-1.996-2.871-1.665-4.914c0.379-2.345,1.725-4.327,4.04-5.943  c2.312-1.621,4.923-2.43,7.824-2.43c1.752,0,3.261,0.298,4.533,0.887c1.267,0.593,2.205,1.453,2.814,2.578  c0.606,1.128,0.801,2.356,0.587,3.684c-0.066,0.407-0.2,0.893-0.409,1.455h-14.899c-0.115,0.993,0.184,1.785,0.897,2.38  c0.71,0.592,1.774,0.889,3.192,0.889C172.952,46.11,174.545,45.67,176.015,44.789L176.015,44.789z M177.91,40.286  c-0.198-0.898-0.661-1.578-1.388-2.046c-0.727-0.462-1.654-0.697-2.786-0.697c-1.122,0-2.175,0.24-3.156,0.718  c-0.982,0.477-1.777,1.152-2.386,2.025H177.91" />
<polyline
   style="stroke:none"
   id="polyline20"
   points="181.242,53.067 175.178,53.067 195.719,34.412 201.782,34.412 181.242,53.067 "
   fill="#00A587" />
<polyline
   id="polyline22"
   points="164.667,54.03 173.813,54.019 170.371,62.496 164.667,54.03 "
   fill="#00A587" />
<path
   style="stroke:none"
   id="path24"
   d="M34.305,29.92c0.322-1.163-0.529-2.103-1.903-2.103c-1.373,0-2.75,0.941-3.074,2.103  c-0.324,1.163,0.527,2.106,1.901,2.106C32.602,32.026,33.98,31.083,34.305,29.92"
   fill="#00A587" />
<polyline
   style="stroke:none"
   id="polyline26"
   points="27.24,48.973 22.724,48.973 27.734,34.594 32.251,34.594 27.24,48.973 "
   fill="#00A587" />
<path
   style="stroke:none;fill:#000000;fill-opacity:1"
   id="path28"
   d="M110.531,32.543l-4.422,2.876c-0.74-0.76-1.7-1.348-2.877-1.763c-1.181-0.418-2.5-0.627-3.958-0.627  c-2.044,0-4.067,0.405-6.066,1.216c-2.002,0.81-3.63,1.875-4.886,3.2c-1.257,1.325-2.004,2.749-2.251,4.264  c-0.328,2.038,0.312,3.737,1.922,5.094c1.611,1.36,3.847,2.039,6.711,2.039c3.065,0,5.828-0.683,8.291-2.054l2.707,3.318  c-3.623,1.809-7.623,2.712-12.001,2.712c-3.078,0-5.62-0.451-7.631-1.347c-2.01-0.897-3.528-2.221-4.551-3.971  c-1.023-1.75-1.369-3.646-1.037-5.692c0.351-2.188,1.465-4.283,3.333-6.289c1.871-2.003,4.219-3.584,7.046-4.737  c2.826-1.152,5.798-1.73,8.915-1.73C104.153,29.052,107.714,30.205,110.531,32.543" />
<path
   style="stroke:none"
   id="path30"
   d="M150.541,66.927c-34.933,17.17-68.161,21.119-74.213,8.828c-2.845-5.78,0.823-14.12,9.139-23.121  c-1.275-0.577-2.374-1.322-3.301-2.219C69.459,62.057,63.228,73.184,66.8,80.442c6.441,13.081,42.306,8.629,80.107-9.949  c9.453-4.645,18.133-9.734,25.732-14.961h-1.996C164.546,59.509,157.794,63.364,150.541,66.927"
   fill="#00A587" />
<path
   style="stroke:none"
   id="path32"
   d="M203.683,13.168c-6.445-13.083-42.31-8.628-80.105,9.947c-4.775,2.346-9.35,4.807-13.69,7.337  c0.513,0.332,1.008,0.69,1.482,1.083l0.31,0.257c5.242-3.266,10.922-6.424,16.944-9.382c34.933-17.168,68.159-21.121,74.215-8.83  c2.479,5.043,0.003,12.038-6.195,19.718h0.995C203.803,25.439,206.22,18.325,203.683,13.168"
   fill="#00A587" />
<rect
   id="rect34"
   height="82.204"
   width="199.006"
   fill="none"
   y="5.669"
   x="5.669" />
<path
   style="stroke:none;fill:#000000;fill-opacity:1"
   id="path36"
   d="M198.265,54.778c0,1.43-1.122,2.551-2.582,2.551c-1.444,0-2.597-1.121-2.597-2.551c0-1.397,1.152-2.52,2.597-2.52  C197.143,52.259,198.265,53.381,198.265,54.778z M193.731,54.778c0,1.122,0.83,2.014,1.967,2.014c1.106,0,1.921-0.892,1.921-1.998  c0-1.121-0.814-2.028-1.937-2.028C194.561,52.766,193.731,53.673,193.731,54.778z M195.283,56.101h-0.584V53.58  c0.23-0.046,0.554-0.077,0.968-0.077c0.477,0,0.692,0.077,0.876,0.185c0.139,0.107,0.246,0.308,0.246,0.554  c0,0.276-0.215,0.491-0.522,0.584v0.03c0.246,0.092,0.384,0.276,0.461,0.614c0.077,0.385,0.123,0.538,0.185,0.631h-0.63  c-0.077-0.093-0.123-0.323-0.2-0.615c-0.046-0.276-0.199-0.399-0.522-0.399h-0.276V56.101z M195.299,54.671h0.276  c0.322,0,0.584-0.107,0.584-0.368c0-0.23-0.169-0.385-0.538-0.385c-0.153,0-0.261,0.016-0.322,0.031V54.671z" />
</svg>